<svg xmlns="http://www.w3.org/2000/svg" width="200mm" height="160mm" viewBox="0 0 566.93 453.54">
  <title>chokface</title>
  <g id="Layer_8" data-name="Layer 8">
    <path d="M260.55,253.48c1.81-1.9,5.71-3.73.22-5.89-23.49-9.23-38.35-27-48.35-49.56a6.24,6.24,0,0,0-4.52-4c-19.37-5.81-21.77-11.78-12.77-30.92,11-.21,19.11-5.27,22.88-15.56,2.74-7.47,5.88-13.11,14.74-13.62,2.3-.14,4.92-1.88,6.62-3.64,4.31-4.44,7.55-4.79,12.5-.19,4.31,4,12.57,8.78,16,3.4,3.76-5.88,5.2-2.26,7.78-1.07,12.9,5.95,13.33,5.7,13.68-8.87,3,2.5,5.75,6.14,9.24,7.24,4.89,1.55,9.64,10.08,16.19-.2,2.15-3.39,11,6.05,18.17,4.74,3.37-.62,1.69-7.48,4.22-5.56,7.59,5.75,20.35,3.18,23.47,16.68,2.37,10.29,10.61,16.26,21.94,16.08,10.13,19.36,8.18,24.4-12.55,31.51-2.5.85-3.26,2.35-4.2,4.41-10.07,22.14-24.71,39.8-47.89,49-2.61,1-4.87,2.28-2.36,5.54-2.63,1.8-1.7,4.77-2.36,7.22-4.66,10.46-13.2,15.67-23.93,17.88-10.87-2.19-19.47-7.43-24.07-18.06C264.75,257.09,265.3,253.38,260.55,253.48ZM255.25,201c6.51,16,21.9,25.32,36.24,23.54,17.15-2.12,29-10.86,31.45-24.66C300.34,225.8,278,225.91,255.25,201Zm5-22.36c-5.4-.21-11.66.32-11.68,6.75,0,5.19,5.05,8.86,10.83,8.65,5.6-.2,11.67-1.4,11.93-8.52C271.59,177.81,265.23,178.81,260.22,178.64Zm58.36,15.79c5.64-.71,11.28-3.29,11.27-9.38,0-5.59-5.82-6.68-10.9-6.41-4.87.27-11.32-1.47-11.85,6.13S313,192.89,318.58,194.43Zm5.54-27.54c-.59-3.11-2.44-5.5-5.66-5.57-3.84-.08-6.06,2.4-5.83,6.32.2,3.52,2.62,5.25,5.93,5.07S323.71,170.35,324.12,166.89Zm-58.23-.2a5.4,5.4,0,0,0-4.95-5.31c-3.84-.45-6.34,2-6.5,5.71-.15,3.33,2.13,5.48,5.48,5.62S265.42,171.1,265.89,166.69Z" fill="#fbd4a0"/>
    <path d="M289.35,123.6c-.35,14.57-.78,14.82-13.68,8.87-2.58-1.19-4-4.81-7.78,1.07-3.45,5.38-11.71.6-16-3.4-5-4.6-8.19-4.25-12.5.19-1.7,1.76-4.32,3.5-6.62,3.64-8.86.51-12,6.15-14.74,13.62-3.77,10.29-11.91,15.35-22.88,15.56-2.06-36.62,6.14-69.33,37.34-91.95,16.65-12.07,35.37-19.76,56.66-18.39Q289.24,88.21,289.35,123.6Z" fill="#ef7d19"/>
    <path d="M288.39,123.6q-.12-35.4-.23-70.79c53.57-.47,94.77,42.29,94,97.63-.05,4-.37,8.08-.57,12.13-11.34.19-19.57-5.78-21.95-16.07-3.11-13.5-15.87-10.93-23.46-16.68-2.53-1.92-.85,4.94-4.22,5.56-7.17,1.31-16-8.13-18.17-4.74-6.55,10.28-11.31,1.75-16.2.2C294.14,129.74,291.44,126.1,288.39,123.6Z" fill="#ef7d1a"/>
    <path d="M260.55,253.48c4.75-.1,4.2,3.61,4.66,6.59-.15,16.66-1.89,33.35,1,50l-.27,0c-8.81,3.88-18,1.23-27.08,1.81l-.21-48.61C244.85,257.49,252.84,255.81,260.55,253.48Z" fill="#0fa2a7"/>
    <path d="M339.34,335.7l-51.1,0q.38-12.45.74-24.91c5.08.07,10.2-.27,15.22.32,7.91.92,9.85-2.57,9.59-10-.42-12,.14-24.08.29-36.12,3.07,12.7,1.23,25.61,1.23,38.4,0,9.84,6.25,7.87,11.86,8.08s11,.58,10.64-8.12c-.51-13.62-.16-27.28-.18-40.91l2.25,1.7Z" fill="#0fa2a7"/>
    <path d="M238.6,263.18l.21,48.61q-.24,11.79-.46,23.59c-24.08,1.88-23.9,1.88-24-21.93C214.26,292.58,221.73,275.64,238.6,263.18Z" fill="#f49927"/>
    <path d="M339.34,335.7l.54-71.52c16.63,11.27,23.4,27.69,24,47.17C364.58,336.49,364.48,336.49,339.34,335.7Z" fill="#fedb4a"/>
    <path d="M337.63,262.48c0,13.63-.33,27.29.18,40.91.34,8.7-4.89,8.34-10.64,8.12s-11.87,1.76-11.86-8.08c0-12.79,1.84-25.7-1.23-38.4-.29-1.6-.57-3.2-.86-4.79.66-2.45-.27-5.42,2.36-7.22C323.5,254.83,331.51,256.42,337.63,262.48Z" fill="#52bfce"/>
    <path d="M238.35,335.38q.22-11.79.46-23.59c9-.58,18.27,2.07,27.08-1.81l23.09.83q-.37,12.45-.74,24.91Z" fill="#7b6448"/>
    <path d="M289,310.81,265.89,310l.26,0c2.53-.13,5.06-.34,7.6-.37,17.14-.17,15.34,1.9,15.47-16.17,0-5.12,0-10.24.07-15.36,10.73-2.21,19.27-7.42,23.93-17.88.29,1.59.57,3.19.86,4.79-.15,12-.71,24.1-.29,36.12.26,7.41-1.68,10.9-9.59,10C299.18,310.54,294.06,310.88,289,310.81Z" fill="#fedb4a"/>
    <path d="M289.29,278.12c0,5.12,0,10.24-.07,15.36-.13,18.07,1.67,16-15.47,16.17-2.54,0-5.07.24-7.6.37-2.83-16.6-1.09-33.29-.94-49.95C269.82,270.69,278.42,275.93,289.29,278.12Z" fill="#f49927"/>
  </g>
  <g id="Layer_9" data-name="Layer 9">
    <ellipse cx="290.49" cy="193.42" rx="51.57" ry="47.74" fill="#fbd4a0"/>
  </g>
  <g id="Layer_10" data-name="Layer 10">
    <ellipse cx="251.43" cy="173.12" rx="20.6" ry="22.35" fill="#fff"/>
    <ellipse cx="322.94" cy="172.73" rx="20.6" ry="22.35" fill="#fff"/>
  </g>
  <g id="Layer_11" data-name="Layer 11">
    <ellipse cx="251.05" cy="184.64" rx="9.4" ry="10.19" fill="#59ae31"/>
    <ellipse cx="322.94" cy="184.64" rx="9.4" ry="10.19" fill="#59ae31"/>
  </g>
  <g id="Layer_12" data-name="Layer 12">
    <ellipse cx="288.98" cy="217.41" rx="21.69" ry="23.53" fill="#9b2949"/>
    <ellipse cx="288.98" cy="197.36" rx="13.97" ry="3.51" fill="#fff"/>
    <ellipse cx="288.47" cy="235.72" rx="12.55" ry="5.35" fill="#ef83b3"/>
  </g>
</svg>
