<svg xmlns="http://www.w3.org/2000/svg" width="200mm" height="160mm" viewBox="0 0 566.93 453.54">
  <title>chokface</title>
  <g id="Layer_2" data-name="Layer 2">
    <path d="M221.69,241.29l-11.15-8.7c-5.92-9.67-12.69-18.86-17-29.47-1.38-3.4-3.95-4-7.08-3.74-17.1-5.52-19.13-11.47-10.78-31.63,41.24-3.2,73.89-20.48,94-58.2a19.75,19.75,0,0,1,2.79,3.17c20,35.72,51.77,51.5,91.08,54.51,9.13,20.28,7.13,26.6-10.21,32.15-3.13-.23-5.7.33-7.07,3.74-4.27,10.6-11.06,19.76-16.93,29.45l-11.19,8.72c-.89-1.35-1.51-.9-2,.3l.13-.1c-15.89,1.73-31.27,6.89-47.47,6.67-15.42-.21-30.1-5.07-45.27-6.67l.13.1C223.2,240.39,222.58,239.93,221.69,241.29ZM235.85,206c7,16.79,22.67,25.76,37.54,23.38,17.79-2.84,28.2-10.74,30.28-24.56C281.06,231.17,258.65,231.14,235.85,206Zm5.88-22.23c-5.59-.06-12.35-.11-12.55,7-.19,6.52,5.85,8.47,11.8,8.55,6.17.09,11.16-2.05,11.13-9C252.09,183.5,246.51,183.83,241.73,183.73Zm58,15.64c5.38-.4,11.49-2.24,11-8.87-.48-7-7.25-6.85-12.82-6.78-4.88.06-10.31,0-10.12,6.83C288,197.53,293.12,199.38,299.69,199.37Zm-.89-33.09c-3.13.53-5.33,2.46-5.43,5.71s1.52,5.66,5.18,5.8c4,.15,6.35-2.2,6.2-5.94C304.63,168.74,302.23,166.76,298.8,166.28Zm-57.61,0a5.88,5.88,0,0,0-6,5.16c-.48,3.75,1.8,6.25,5.78,6.33,3.48.06,5.46-2.05,5.54-5.43S244.59,167.05,241.19,166.32Z" fill="#f9d98a"/>
    <path d="M269.76,109.55c-20.16,37.72-52.81,55-94,58.2-1.16-29,3.09-56.54,23.56-78.77,18.91-20.55,42.41-31.48,70.62-31.12Q269.83,83.71,269.76,109.55Z" fill="#111110"/>
    <path d="M268.76,109.55q.06-25.85.13-51.69c53.65-.2,94.45,42,94,97.26,0,4-.19,8.07-.3,12.11-39.31-3-71.07-18.79-91.08-54.51A19.75,19.75,0,0,0,268.76,109.55Z" fill="#060707"/>
    <path d="M269.9,340.89c-22.27.1-44.53,0-66.79.42-6.23.11-8.08-2-8.13-8.21-.15-18.12-.59-36.17,11.16-51.6,10-13.08,22.41-21.89,39.42-22.58,1,15.29,11.44,21.22,24.26,24.78Q269.87,312.3,269.9,340.89Z" fill="#e5221f"/>
    <path d="M268.9,340.89q0-28.59-.08-57.19c12.84-3.57,23.76-9.06,24.4-24.79,27.78,3,48.78,25.39,50.45,53.87s1.66,28.46-26.4,28.41C301.14,341.16,285,341,268.9,340.89Z" fill="#e5221f"/>
    <path d="M208.41,232.7c-10.83,10.2-19.84,21.43-20.66,37.29-19.74-7.2-24.94-51-1.62-66.43C186.08,221.2,190.65,227.18,208.41,232.7Z" fill="#060707"/>
    <path d="M353.79,203.56c20.64,13.38,20.63,53.37-1.2,67.17-1.31-16.15-9.91-27.86-21-38C349.24,227.19,353.75,221.29,353.79,203.56Z" fill="#060707"/>
    <path d="M294.22,258.91c-.64,15.73-11.55,21.22-24.4,24.79-12.82-3.56-23.26-9.49-24.26-24.78.07-1.4.14-2.8.2-4.19,16.08,3.12,32.15,3.56,48.21-.14C294.06,256,294.14,257.47,294.22,258.91Z" fill="#f9d98a"/>
    <path d="M294,254.59c-16.06,3.7-32.13,3.26-48.21.14-7.25-4.64-16.46-6-22.17-13.24,15.17,1.6,29.85,6.46,45.27,6.67,16.2.22,31.58-4.94,47.47-6.67C310.7,249,301.23,249.89,294,254.59Z" fill="#f9d98a"/>
    <path d="M208.41,232.7c-17.76-5.52-22.33-11.5-22.28-29.14l.36-4.18c3.13-.24,5.7.34,7.08,3.74,4.28,10.61,11.05,19.8,17,29.47l-1.06.17Z" fill="#f7b9a9"/>
    <path d="M353.79,203.56c0,17.73-4.55,23.63-22.25,29.14l-1.07,0-1.05-.16c5.87-9.69,12.66-18.85,16.93-29.45,1.37-3.41,3.94-4,7.07-3.74C353.54,200.77,353.67,202.17,353.79,203.56Z" fill="#f7b9a9"/>
    <path d="M316.2,241.59c.52-1.2,1.14-1.65,2-.3A7.79,7.79,0,0,1,316.2,241.59Z" fill="#fbd4a0"/>
    <path d="M221.69,241.29c.89-1.36,1.51-.9,2,.3A7.73,7.73,0,0,1,221.69,241.29Z" fill="#fbd4a0"/>
  </g>
  <g id="Layer_3" data-name="Layer 3">
    <ellipse cx="270.91" cy="196.45" rx="47.32" ry="40.8" fill="#f9d98a"/>
  </g>
  <g id="Layer_4" data-name="Layer 4">
    <circle cx="232.55" cy="179.6" r="18.2" fill="#fff"/>
    <circle cx="306.82" cy="177.8" r="18.2" fill="#fff"/>
    <ellipse cx="306.45" cy="190.6" rx="10.28" ry="5.17" fill="#462b13"/>
  </g>
  <g id="Layer_5" data-name="Layer 5">
    <ellipse cx="268.03" cy="223.25" rx="22.57" ry="22.72" fill="#9b2949"/>
    <ellipse cx="232.18" cy="192.41" rx="10.28" ry="5.17" fill="#462b13"/>
  </g>
  <g id="Layer_6" data-name="Layer 6">
    <ellipse cx="268.03" cy="203.89" rx="14.53" ry="3.39" fill="#fff"/>
  </g>
  <g id="Layer_7" data-name="Layer 7">
    <ellipse cx="267.5" cy="240.94" rx="13.06" ry="5.17" fill="#ef83b3"/>
  </g>
</svg>
