<svg xmlns="http://www.w3.org/2000/svg" width="200mm" height="160mm" viewBox="0 0 566.93 453.54">
  <title>chokface</title>
  <g id="Layer_21" data-name="Layer 21">
    <path d="M378.32,168.44c13.45,14.13,12.29,22.67-4.33,32-3.53.37-7.51-1.94-9.55,4-4.08,11.73-11.8,21.39-19.43,31-6.75,7.18-15.51,11.58-23.39,17.19-3.91,1.28-9.36.54-9.18,7.16-1.6,11.51-10.28,18.13-17.34,26-4.59,5.09-7.63,5.06-13.21.42-10.57-8.79-14.64-22.9-26.14-30.61-5.53-9.8-17.27-12.11-24.09-20.35-7.38-8.95-14.89-18-18.6-29.12-2.06-6.18-5.71-6.38-10.6-5.67-15.86-8.94-17.3-16.58-5.9-31.2,26.05-4.38,52.23-8.32,76.43-19.89,20-9.58,38-21.38,46-43.82,4.25,2.29,3,6.86,4.07,10.39C331.58,144.07,349.86,161.67,378.32,168.44Zm-123.86,38.8c6.26,15.88,21.7,25.27,36,23.55,17-2,28.75-10.74,31.54-24.77C299.39,232,277.11,232.28,254.46,207.24Zm5.33-6.8c4.62-1.19,11-1.76,10.64-9.19-.34-7.64-6.74-6.12-11.63-6.31-5.43-.2-11.6.8-11.09,7.25C248.11,197.09,253.17,200.58,259.79,200.44Zm56.4,0c6.83.34,11.87-2.91,12.62-8.61.66-5-4.5-7.1-9.28-6.79-5.3.34-12.94-2.62-13.44,6.6C305.72,198.36,311.8,199.08,316.19,200.42Zm6.94-27.69c-.81-2.35-2.33-5-5.6-5.1-3.82-.12-6.1,2.3-5.93,6.22.15,3.47,2.48,5.29,5.82,5.16S322.6,176.75,323.13,172.73Zm-65.69,6.34c6-.3,7.66-2.71,7.53-5.9s-2.18-5.68-5.57-5.53c-3.71.17-6.16,2.56-5.74,6.46C254,177.36,256.38,179.09,257.44,179.07Z" fill="#f7d9b5"/>
    <path d="M319,105.49c-8,22.44-26,34.24-46,43.82-24.2,11.57-50.38,15.51-76.43,19.89-.66-28,3.08-54.45,21.54-77.34C241,63.46,286,49.2,321.22,65.42,320.53,78.78,323,92.31,319,105.49Z" fill="#8e1913"/>
    <path d="M255.75,255.54c11.5,7.71,15.57,21.82,26.14,30.61,5.58,4.64,8.62,4.67,13.21-.42,7.06-7.83,15.74-14.45,17.34-26l10.77,1.93q3.41,18,6.8,36.07c.05.79.11,1.57.16,2.35l0,17.18-.33,24.38-82.89.05q-.28-12.35-.56-24.7,0-8.22,0-16.43a4,4,0,0,0,.56-2c2.78-10.79,4.63-21.8,4.26-32.89-.13-4,1.75-5.47,3.67-7.66Z" fill="#e95430"/>
    <path d="M319,105.49c4-13.18,1.5-26.71,2.19-40.07,41.42,17,64,57.7,57.1,103-28.46-6.77-46.74-24.37-55.22-52.56C322,112.35,323.28,107.78,319,105.49Z" fill="#8e1913"/>
    <path d="M255,258.06c-1.92,2.19-3.8,3.69-3.67,7.66.37,11.09-1.48,22.1-4.26,32.88-3.77-2-5-6.09-7.53-9.15-6.62-8.08-10.91-18-18.95-25-6.92-21.11-13-42.45-18.1-64.09,4.89-.71,8.54-.51,10.6,5.67,3.71,11.14,11.22,20.17,18.6,29.12-1.23,5.81-4.15,10.81-7.51,15.55-3.62,5.09-3.27,7.57,3.78,7.32C236.94,257.75,246,258,255,258.06Z" fill="#8e1913"/>
    <path d="M330,297.77q-3.4-18-6.8-36.07c.26-1.2.52-2.4.79-3.61,8.28.05,16.58-.17,24.85.22,7.12.33,7-2.46,4.15-7.57s-7-9.34-8-15.32c7.63-9.61,15.35-19.27,19.43-31,2-5.9,6-3.59,9.55-4-5.07,20.88-10.72,41.59-17.67,61.93C345.62,272.73,340.37,287.18,330,297.77Z" fill="#8e1913"/>
    <path d="M230.38,341.74c-16.81.93-16.55.93-16.89-15.94-.3-15.33.9-30.1,10.93-42.67,3.22,5.48,2.48,12.44,6.48,17.63q.1,8.12.22,16.22C229.29,325.18,230.52,333.48,230.38,341.74Z" fill="#e95430"/>
    <path d="M351.87,284c13,16.16,10.61,35.44,10.76,54.2,0,3.67-2.46,3.88-5.12,3.82-4-.08-7.93-.19-11.89-.29q-.21-12.19-.43-24.4l.25-17.18Q348.65,292,351.87,284Z" fill="#e95430"/>
    <path d="M230.38,341.74c.14-8.26-1.09-16.56.74-24.76l15.31,0q.28,12.35.56,24.7Z" fill="#8e1913"/>
    <path d="M345.19,317.29q.21,12.19.43,24.4H329.88l.33-24.38Z" fill="#8e1913"/>
    <path d="M351.87,284q-3.22,8.07-6.43,16.15H330.17c-.05-.78-.11-1.56-.16-2.35,10.36-10.59,15.61-25,26.31-35.38Q354.09,273.17,351.87,284Z" fill="#8e1913"/>
    <path d="M230.9,300.76c-4-5.19-3.26-12.15-6.48-17.63.08-6.5-4.71-12-3.86-18.64,8,7,12.33,16.88,18.95,25,2.5,3.06,3.76,7.15,7.53,9.15a4,4,0,0,1-.56,2Z" fill="#8e1913"/>
    <path d="M255,258.06c-9,0-18-.31-27,0-7.05.25-7.4-2.23-3.78-7.32,3.36-4.74,6.28-9.74,7.51-15.55,6.82,8.24,18.56,10.55,24.09,20.35Z" fill="#8e1913"/>
    <path d="M345,235.42c1,6,5.2,10.29,8,15.32s3,7.9-4.15,7.57c-8.27-.39-16.57-.17-24.85-.22q-1.2-2.73-2.38-5.48C329.5,247,338.26,242.6,345,235.42Z" fill="#8e1913"/>
    <path d="M321.62,252.61q1.19,2.74,2.38,5.48c-.27,1.21-.53,2.41-.79,3.61l-10.77-1.93C312.26,253.15,317.71,253.89,321.62,252.61Z" fill="#fff"/>
    <path d="M330.17,300.12h15.27q-.12,8.59-.25,17.18h-15Q330.2,308.72,330.17,300.12Z" fill="#77ba5a"/>
    <path d="M230.9,300.76l15.58-.16q0,8.2,0,16.43l-15.31,0Q231,308.87,230.9,300.76Z" fill="#77ba5a"/>
  </g>
  <g id="Layer_22" data-name="Layer 22">
    <ellipse cx="286.47" cy="202.71" rx="58.72" ry="39.51" fill="#f7d9b5"/>
  </g>
  <g id="Layer_23" data-name="Layer 23">
    <ellipse cx="247.36" cy="185.04" rx="23.56" ry="24.42" fill="#fff"/>
    <ellipse cx="329.11" cy="184.61" rx="23.56" ry="24.42" fill="#fff"/>
    <ellipse cx="246.93" cy="197.62" rx="10.74" ry="11.14" fill="#8bd0e5"/>
    <ellipse cx="329.11" cy="197.62" rx="10.74" ry="11.14" fill="#8bd0e5"/>
  </g>
  <g id="Layer_24" data-name="Layer 24">
    <ellipse cx="288.02" cy="230.93" rx="24.8" ry="25.7" fill="#9b2949"/>
    <ellipse cx="288.02" cy="209.03" rx="15.97" ry="3.84" fill="#fff"/>
    <ellipse cx="287.44" cy="250.94" rx="14.35" ry="5.85" fill="#ef83b3"/>
  </g>
</svg>
