<svg xmlns="http://www.w3.org/2000/svg" width="200mm" height="160mm" viewBox="0 0 566.93 453.54">
  <title>chokface</title>
  <g id="Layer_17" data-name="Layer 17">
    <path d="M376.65,181.76c5.84,4.77,10.09,10.08,7.4,18.12-2.4,7.17-7,11.55-15.22,11.07-5.51-.32-5.92,3.78-7.4,7-6.45,14.24-15.65,26.41-28.93,35.53-.91-1.61-1.65-1.43-2.25.2l.11-.08c-15.37.1-30.08,5-45.64,4.91-14.75-.1-28.72-4.85-43.35-4.63l.11.07c-.62-1.61-1.36-1.8-2.25-.18-13.34-9-22.61-21.13-29.17-35.31-1.49-3.24-1.89-7.38-7.41-7-8.19.53-12.84-3.78-15.32-10.92-2.79-8,1.43-13.35,7.18-18.18,4.59-.72,8.46-.91,7.85,5.58-.25,2.58-1.86,6.53,2.2,7.71s7.43-1.42,10.08-4.18c4.2-4.37,4.89-9.93,4.9-15.56,0-11.5.31-23-.24-34.51-.32-6.89,2.09-8.74,9.21-8.64,19.71.29,39.44-.25,59.16-.47,18.61.1,37.23.51,55.83.13,7.26-.15,9.63,2.24,9.28,8.92-.59,11.5-.83,23-.88,34.55,0,6.4,1,12.65,7,16.91,2.27,1.6,4.75,3.09,7.47,2.38,3.59-.94,2.63-4.25,2.42-6.62C368.25,182.72,370.39,180.19,376.65,181.76ZM320.11,217c-22.94,26-45.72,25.7-70.4-1.21,7,17.75,22.12,26.5,38.21,25.28C304.27,239.87,317,231,320.11,217Zm-63.75-5.67c5.72.14,12-.71,11.84-7.23-.16-5.59-6.13-6.54-11.5-6.47-5.69.07-12,.69-11.84,7.27C245,210.55,251,211.65,256.36,211.37Zm58.08-.18c5.67.14,12.06-.48,12.1-7,0-5.69-5.85-6.74-11.24-6.71-5.65,0-12.06.48-12.1,7C303.17,210.21,309.06,211.38,314.44,211.19Zm6.26-24.5c.15-3.64-2.33-5.54-5.47-5.85s-5.9,1.28-6.37,4.79c-.57,4.19,2.29,6.41,5.88,6.49A5.54,5.54,0,0,0,320.7,186.69Zm-58.27.17c.25-3.68-2.2-5.56-5.39-5.84s-5.93,1.43-6.41,4.83c-.59,4.15,2.41,6.36,6,6.46C259.52,192.39,262.45,190.61,262.43,186.86Z" fill="#432813"/>
    <path d="M287.88,132.32c-19.72.15-39.45.64-59.16.28-7.11-.12-9.53,1.72-9.23,8.62.5,11.48.18,23,.12,34.5,0,5.63-.74,11.19-5,15.55-2.67,2.75-6,5.36-10.1,4.14s-2.43-5.14-2.18-7.71c.64-6.49-3.23-6.31-7.83-5.61-6.53-71,39-101,100.59-116,10.78-2.62,21.91-7.31,33.63-3.19C312,84.36,299.94,108.34,287.88,132.32Z" fill="#060707"/>
    <path d="M287.88,132.32c12.06-24,24.1-48,40.89-69.38,30.14,22.21,43.53,52.84,47.36,88,1.12,10.29.42,20.75.56,31.14-6.25-1.6-8.39.93-7.88,6.8.21,2.36,1.15,5.68-2.44,6.6-2.73.71-5.2-.79-7.46-2.4-6-4.28-7-10.53-6.94-16.94.08-11.51.36-23,1-34.54.36-6.68-2-9.07-9.26-8.95C325.11,132.94,306.49,132.47,287.88,132.32Z" fill="#040505"/>
    <path d="M285.56,344.38q-33.69.17-67.4.33c-3.45,0-7.22.53-7.21-4.66,0-17.38-1.91-35,9.4-50.53,9.36-12.89,22-20.62,37.78-23.82,1.19.83,3.29,1.54,3.45,2.53,2.14,13.26,11.84,18.33,24,20.85Z" fill="#12672f"/>
    <path d="M284.49,344.38l0-55.3c14.31-2,22.11-10.51,25.66-23.35,44.35,9.19,51.62,41.12,49.13,74.21-.45,5.94-4.87,4.74-8.47,4.74C328.73,344.65,306.61,344.49,284.49,344.38Z" fill="#12672f"/>
    <path d="M311.25,262.86c-3.7,15-11.82,25-26.72,27.25-12.67-2.95-22.76-8.87-25-24.34-.16-1.16-2.35-2-3.59-2.95.71-1.56,1.41-3.11,2.12-4.66a114.62,114.62,0,0,0,53.09,0Z" fill="#432815"/>
    <path d="M314,263.4a129.61,129.61,0,0,1-58.64,0c-7.24-4.69-16.48-5.88-21.84-13.84,16.82-.22,32.87,5.81,49.83,6,17.89.19,34.82-5.93,52.49-6C330.48,257.51,321.24,258.71,314,263.4Z" fill="#432815"/>
  </g>
  <g id="Layer_18" data-name="Layer 18">
    <ellipse cx="288.74" cy="206.73" rx="49.72" ry="42.25" fill="#432813"/>
  </g>
  <g id="Layer_19" data-name="Layer 19">
    <ellipse cx="245.92" cy="181.54" rx="22.9" ry="22.68" fill="#fff"/>
    <ellipse cx="325.4" cy="181.14" rx="22.9" ry="22.68" fill="#fff"/>
    <ellipse cx="245.5" cy="193.23" rx="10.44" ry="10.34" fill="#3f3b3b"/>
    <ellipse cx="325.4" cy="193.23" rx="10.44" ry="10.34" fill="#3f3b3b"/>
  </g>
  <g id="Layer_20" data-name="Layer 20">
    <ellipse cx="288.74" cy="237.56" rx="31.52" ry="15.36" fill="#9b2949"/>
    <ellipse cx="288.24" cy="249.55" rx="13.95" ry="3.46" fill="#ef83b3"/>
    <ellipse cx="288.05" cy="227.07" rx="19.49" ry="5.71" fill="#fffefe"/>
  </g>
</svg>
