<svg xmlns="http://www.w3.org/2000/svg" width="200mm" height="160mm" viewBox="0 0 566.93 453.54">
  <title>chokface</title>
  <g id="Layer_13" data-name="Layer 13">
    <path d="M207.47,201.82c-10.35-12.54-10.4-16.6-.35-29.51,33.64-7.72,54.32-30.65,59.18-65.6,10.23,23.14,28.42,37.13,51,47,23.39,10.18,48.08,14.22,72.87,18.28,10.53,12.93,10.53,17.13,0,30.16-9.8-.68-14.92,4.22-18.91,13.18-8.29,18.64-22.69,31.69-41,40.26-3.21,1.49-7.31,1.83-6.68,7-4.32,17-9.57,21.76-26.35,23.84-14.21-1.88-21-10.89-23-24.45,1-5.68-4.1-5.23-6.94-6.57-18-8.5-32.37-21.24-40.25-39.57C222.86,206.07,217.12,202,207.47,201.82Zm55.94,7.35c8.44,17,22.85,25.84,37.1,24.62,16.11-1.38,28.39-10.12,31.78-22.64C305.28,235.66,291.25,234.79,263.41,209.17ZM270,179.28c2.51-1.15,7.4,2.19,7.35-3.33,0-3.67-3.37-5.41-7-5.58-4.14-.2-7.89,1.95-7.92,5.82C262.46,181.23,267.41,178.23,270,179.28Zm57.8.2c2-2,7.11,2.12,7.52-2.87.3-3.82-3.42-6.24-7.55-6.24s-7.67,2-7.52,6.19C320.44,181,324.84,178.37,327.84,179.48Z" fill="#fbd4a0"/>
    <path d="M390.17,172c-24.79-4.06-49.48-8.1-72.87-18.28-22.58-9.83-40.77-23.82-51-47l-.3-38c52.68-22.82,118.47,14.45,122.89,76.76C389.51,154.3,389.75,163.13,390.17,172Z" fill="#f0e522"/>
    <path d="M274.21,261.9c2,13.56,8.78,22.57,23,24.44,3.79,19.43.78,39.05,1.6,58.57-21.84.12-43.69-.05-65.53.51-7.24.18-9.72-2.1-9-9.28.47-5.08-.14-10.26-.26-15.4C226.22,288.11,241.5,270.22,274.21,261.9Z" fill="#632573"/>
    <path d="M297.78,344.91c-.81-19.52,2.2-39.14-1.6-58.57,16.78-2.07,22-6.82,26.36-23.83,30.43,5.64,46.5,24.24,50.21,58.11-1.37,24.63-1.37,24.68-25.8,24.62C330.56,345.2,314.17,345,297.78,344.91Z" fill="#632573"/>
    <path d="M274.21,261.9c-32.71,8.32-48,26.21-50.24,58.84-16.47.05-16.47.05-16.47-16.8l0-102.12c9.65.19,15.39,4.25,19.55,13.94,7.88,18.33,22.23,31.07,40.25,39.57C270.11,256.67,275.19,256.22,274.21,261.9Z" fill="#f0e522"/>
    <path d="M373.76,320.62c-3.7-33.87-19.77-52.47-50.21-58.11-.63-5.13,3.47-5.47,6.68-7,18.34-8.57,32.74-21.62,41-40.26,4-9,9.11-13.86,18.91-13.18q-.07,51.24-.15,102.47C390,320.72,390,320.72,373.76,320.62Z" fill="#f0e522"/>
    <path d="M266,68.73l.3,38c-4.86,35-25.54,57.88-59.18,65.6-.79-27.94,2.53-54.73,21.37-77.11C238.69,83.09,250.42,73.11,266,68.73Z" fill="#f0e522"/>
  </g>
  <g id="Layer_14" data-name="Layer 14">
    <ellipse cx="301.97" cy="207.97" rx="58.6" ry="47.52" fill="#fbd4a0"/>
  </g>
  <g id="Layer_15" data-name="Layer 15">
    <ellipse cx="265.11" cy="183.91" rx="21.72" ry="22.62" fill="#fff"/>
    <ellipse cx="264.42" cy="196.29" rx="9.91" ry="10.32" fill="#3a4c9b"/>
    <ellipse cx="331.7" cy="185.07" rx="21.72" ry="22.62" fill="#fff"/>
    <ellipse cx="331.7" cy="195.38" rx="9.91" ry="10.32" fill="#3a4c9b"/>
  </g>
  <g id="Layer_16" data-name="Layer 16">
    <ellipse cx="298.38" cy="238.72" rx="29.9" ry="15.32" fill="#9b2949"/>
    <ellipse cx="297.9" cy="250.68" rx="13.23" ry="3.45" fill="#ef83b3"/>
    <ellipse cx="297.72" cy="227.23" rx="18.48" ry="5.69" fill="#fffefe"/>
  </g>
</svg>
