<svg xmlns="http://www.w3.org/2000/svg" width="200mm" height="160mm" viewBox="0 0 566.93 453.54">
  <title>chokface</title>
  <g id="Layer_25" data-name="Layer 25">
    <path d="M244.32,258.59a79.4,79.4,0,0,1-25.74-31.14c-2.16-4.67-4.3-8-10.77-9.26-14.15-2.68-15.85-14-5.35-29.17,3.13,1.26,8.7-1.56,8.39,5.52-.13,2.75-2.33,7.39,2.37,8.26a8.94,8.94,0,0,0,9.7-5.93c3.68-11.07,11.87-20,14.64-31.39h42.95c.24,2.64,2.53,3.4,4.32,4.55,13.34,8.51,28.13,12.9,43.64,15.56,9.86,1.69,21.92-.7,26,13.12.83,2.8,4.85,5,8.42,4,4-1.12,2.37-5,2.2-7.57-.45-7,3.26-8.19,9-7.34-.41,3.82,3,5.76,4.43,8.65,5.13,10,1,20.1-10.27,21.78-5.82.87-8.34,3.42-10.42,8.09a80.51,80.51,0,0,1-26.26,32.29c-1.28-1.86-2.86-1.63-4.83-1-24.31,7.35-48.72,7.47-73.33,1.26C250.7,258.18,247.4,254.77,244.32,258.59Zm74.36-32.91c-8.59,9.32-17.75,16-31.36,16-13.35,0-21.57-8.22-31.89-18a34.71,34.71,0,0,0,32.66,23.53C302.17,247.11,315.78,238,318.68,225.68Zm-3.55-7c6.28.1,11.22-1.92,11.28-7.38.07-6.42-6-7.87-11.17-7.72-4.71.13-10.19,1.82-10.3,7.72C304.8,218.47,311,218.21,315.13,218.68Zm-54.06,0c5.2.12,10.28-.48,9.93-7.21-.31-6.06-5.59-7.66-10.36-7.92-5.74-.32-10.86,3.22-10.68,8.75S255.89,219,261.07,218.68Zm-.45-29.74c-2.76.76-5,1.94-5,5.11,0,3.7,2.43,5.25,5.74,5.09,2.84-.14,4.93-1.89,4.9-4.9C266.26,190.67,263.7,189.36,260.62,188.94Zm54.45,10.33c2.66-.47,5-1.31,5.24-4.56.32-3.79-2.12-5.64-5.21-5.65s-5.66,2-5.32,5.62C310.06,197.59,312.18,199,315.07,199.27Z" fill="#d7a480"/>
    <path d="M280.51,165.48H237.56l-34.75.27c-1.37-4.76-1.91-9.47.87-14,.69,1.91,1.27,5.27,3.74,1.62,2.16-3.2,4.94-5.32,8-7.47,18.12-12.95,39-17.12,60.64-18.12,8-.37,11.37-2.78,11-11-.5-11.37-.34-22.79,0-34.18.14-5.4-1.42-8.51-7.28-8.36,3.77-7.63,8.27-12.17,15.11-2.82,1.78,2.44,3.92,2.71,6.52,3.23,45.77,9.28,72.26,42.54,72.21,90.47Z" fill="#52bfce"/>
    <path d="M311.76,273.78c27.8,4.65,45,24.73,46.11,53.76.82,21.91.82,21.92-20.81,21.9-6.31,0-12.62-.12-18.92-.18-9.48-10.06-18.46-20.65-29.88-28.73-12.23,7.43-20.77,18.7-30.49,28.76-11.08.12-22.17.3-33.26.32-2.76,0-5.62.65-6.92-3.49-6.14-19.55,5.36-51.54,23.26-64a58.76,58.76,0,0,1,21.24-8.94c3.83,1.39,3.65,5.06,4.9,8a21.45,21.45,0,0,0,15.29,13.15C296.19,298,305,291.93,311.76,273.78Z" fill="#d3cb36"/>
    <path d="M279.7,74.25c5.86-.15,7.42,3,7.28,8.36-.31,11.39-.47,22.81,0,34.18.37,8.23-3,10.64-11,11-21.63,1-42.52,5.17-60.64,18.12-3,2.15-5.79,4.27-8,7.47-2.47,3.65-3,.29-3.74-1.62C203.66,113.06,240.64,75.46,279.7,74.25Z" fill="#53bfce"/>
    <path d="M280.51,165.48l93-.35c3.75,1.39,7.57,2.6,11.22,4.21,3.36,1.48,9.22.53,9.36,5.21.12,3.85-4.51,6.3-8,8.14-3.85,2-8,3.44-12,5.13-5.72-.85-9.43.36-9,7.34.17,2.53,1.8,6.45-2.2,7.57-3.57,1-7.59-1.22-8.42-4-4.1-13.82-16.16-11.43-26-13.12-15.51-2.66-30.3-7.05-43.64-15.56C283,168.88,280.75,168.12,280.51,165.48Z" fill="#5c3511"/>
    <path d="M202.81,165.75l34.75-.27c-2.77,11.4-11,20.32-14.64,31.39a8.94,8.94,0,0,1-9.7,5.93c-4.7-.87-2.5-5.51-2.37-8.26.31-7.08-5.26-4.26-8.39-5.52Q202.64,177.38,202.81,165.75Z" fill="#5c3511"/>
    <path d="M311.76,273.78C305,291.93,296.19,298,282.28,294.42A21.45,21.45,0,0,1,267,281.27c-1.25-3-1.07-6.66-4.9-8l2.42-3.6a110.73,110.73,0,0,0,46.84,0C311.49,271,311.62,272.4,311.76,273.78Z" fill="#d7a480"/>
    <path d="M311.35,269.64a110.73,110.73,0,0,1-46.84,0c-6.73-3.69-14.26-5.92-20.19-11,3.08-3.82,6.38-.41,9.09.27,24.61,6.21,49,6.09,73.33-1.26,2-.6,3.55-.83,4.83,1C325.63,263.74,318.07,265.92,311.35,269.64Z" fill="#d7a480"/>
    <path d="M257.77,349.29c9.72-10.06,18.26-21.33,30.5-28.76l.36,28.63Z" fill="#ee86b5"/>
    <path d="M288.63,349.16l-.36-28.63c11.41,8.08,20.39,18.67,29.87,28.73Z" fill="#f7b9a9"/>
  </g>
  <g id="Layer_26" data-name="Layer 26">
    <ellipse cx="289.16" cy="219.41" rx="50.14" ry="40.52" fill="#d7a480"/>
  </g>
  <g id="Layer_27" data-name="Layer 27">
    <ellipse cx="248.38" cy="209.36" rx="22.8" ry="23.25" fill="#fff"/>
    <ellipse cx="327.51" cy="208.95" rx="22.8" ry="23.25" fill="#fff"/>
    <ellipse cx="247.96" cy="221.34" rx="10.4" ry="10.61" fill="#1e7131"/>
    <ellipse cx="327.51" cy="221.34" rx="10.4" ry="10.61" fill="#1e7131"/>
  </g>
  <g id="Layer_28" data-name="Layer 28">
    <ellipse cx="287.95" cy="247.58" rx="29.64" ry="14.93" fill="#9b2949"/>
    <ellipse cx="287.48" cy="259.23" rx="13.11" ry="3.37" fill="#ef83b3"/>
    <ellipse cx="287.3" cy="237.39" rx="18.32" ry="5.55" fill="#fffefe"/>
  </g>
</svg>
