<svg xmlns="http://www.w3.org/2000/svg" width="170mm" height="133.43mm" viewBox="0 0 481.89 378.23">
  <title>Artboard 1</title>
  <g id="Layer_1" data-name="Layer 1">
    <path d="M199.4,138.89c17.13-5.14,44.59-4.62,57.83,15.89,3.34,5.18,5.7,12,6.53,20.87,2.22,23.72,4.71,45.82,6.7,62.4,1.88,15.65-9.21,29.54-23.57,29.54H188.15c-13.7,0-24.57-12.7-23.73-27.73q2-35.12,3.92-70.23a26.79,26.79,0,0,1,10.19-19.89A65.27,65.27,0,0,1,199.4,138.89Z" fill="#2f1c10"/>
    <path d="M249.54,182.78a9.55,9.55,0,0,0,0-1.2l-1.2-21.94c-.35-6.44-7.22-11.49-15.49-11.4l-34.77.36a18.69,18.69,0,0,1-3.35-.25,16.51,16.51,0,0,0-8.42.66c-5.47,1.9-8.82,6.27-8.74,10.94l.45,24.11a9,9,0,0,0-.16,5.14l.12,8.93c2.43,10.6,8.3,18.27,19.92,20.68,3.11.65,6.42.42,9.64.6l12.6-.09c3.36-.24,6.82-.08,10.07-.81,11.18-2.5,16.61-10.07,19.1-20,0-3.32.08-6.51.12-9.82C249.12,186.83,250.16,184.44,249.54,182.78Z" fill="#d9a582"/>
    <rect x="208.97" y="190.78" width="5.8" height="1.89" rx="0.88" ry="0.88" fill="#e4b1b1"/>
    <path d="M175.87,163.83l-4.49,21.63c-.65,3.12-1.27,6.51.09,9.43,2.57-2.94,2.64-7.46,4.87-10.68s6.38-4.73,9-7.74c2.26-2.6,3.17-6.11,4.54-9.3s3.6-6.39,7-7.06A30,30,0,0,0,196,174c4.33-1,5.21-6.83,8.07-10.27s7.6-4.34,12-5a12.34,12.34,0,0,0-.23,13.93l12-12.76c.07,2.45,1.67,4.57,3.18,6.51,1.91,2.42,4.7,5.14,7.52,4.09,2.21-.82,3-3.49,4-5.67s3.3-4.38,5.42-3.24c4-1.53,3.77-8,.52-10.93s-7.92-3.31-12.22-3.47c-13.95-.5-27.9-.37-41.85-.08C181,147.36,178.75,150,175.87,163.83Z" fill="#2f1c10"/>
    <rect x="206.13" y="215.84" width="15.07" height="14.8" fill="#daa682"/>
    <path d="M182.12,254.16c-4,6.53-6.4,13.53-9.36,20.36a2.33,2.33,0,0,0,.28,2.78c.28.31.84.82.73.93-2.6,2.47-4.85,5-5.81,8.2-.19.63-2-.18-2.74-1-2.73-2.81-1.82-5.63-.82-8.33a253.36,253.36,0,0,0,8.49-28.84,31.36,31.36,0,0,1,2.26-6.08c8.67,2.72,8.67,2.72,7.64,8.82C182.62,252.09,182.35,253.12,182.12,254.16Z" fill="#d9a582"/>
    <path d="M253.37,240.71c4.28,10.71,8.58,21.41,12.77,32.15a6.93,6.93,0,0,1,0,3.42c-.16,1.18-1.47,2.19-2.86,2.52-1.55.36-1.29-1.07-1.93-1.64-1.39-1.24-.45-3.71-3.85-3.91-.27,0-.61-.52-.51-.76,2.54-6.25-4.16-9.95-5.61-15.11-.69-2.45-2.53-4.62-3.84-6.92-2.53-5.93-2.53-5.93,5.36-9.6C253.08,240.8,253.23,240.76,253.37,240.71Z" fill="#d9a582"/>
    <rect x="192.56" y="319.35" width="13.2" height="44.43" rx="6.07" ry="6.07" fill="#d9a582"/>
    <rect x="224.23" y="319.35" width="13.2" height="44.43" rx="6.07" ry="6.07" fill="#d9a582"/>
    <path d="M191.46,355.06l14.93-.11q2.49,6.71,5,13.41l-24.61.15Z" fill="#594797"/>
    <path d="M223.27,354.76a66.82,66.82,0,0,0,15-.07c.65,4.91,3.76,8.78,5.12,13.41l-25.12.17C219.45,363.57,222.77,359.75,223.27,354.76Z" fill="#594797"/>
    <path d="M218.23,368.27l25.12-.17c1.39,3.24.77,5.09-3,5.07-6.32,0-12.65,0-19,.12C217.65,373.37,217.05,371.53,218.23,368.27Z" fill="#a36cab"/>
    <path d="M186.78,368.51l24.61-.15c1.23,2.36,1.54,4.84-1.75,4.85-7.7,0-15.44,1.12-23.1-.51l.1,0A3.21,3.21,0,0,1,186.78,368.51Z" fill="#a36cab"/>
    <path d="M235.64,223.24s-12,14.1-47.42.95l-16.61,21.92,10.31,6.57L191.79,238l-12.17,31,68.38-.48L237.57,237l9.1,13.54,11.27-4.41Z" fill="#584998" stroke="#584998" stroke-miterlimit="10" stroke-width="0.53"/>
    <path d="M174.75,326.24q2.19-25,4.39-50c.33-3.76.63-7.53.93-11.29,3.24-.13,7.7,1.49,7.74-3.82.08-12.41,2.45-24.76.88-37.2,3.2-.88,6.35-2.94,9.67-.3-.18,2.14,2.81,3.17,2.18,5.46-2.21,4.11-.48,8.48-1,12.7-.43,3.44,1,4.92,4.88,4.71,5.21-.27,10.44-.09,15.67-.16,9.79-.12,8.85.87,8.51-8.13-.11-3.05,2.27-6.87-2.05-9.19,1.11-1.51,3.15-2.71,1.9-5,3.31-2.09,6.68-2.56,10.17-.39-2.37,12.84,2.18,25.32,2.32,38.06,0,3.77,3.86,4.48,7.52,2.78,2,18.44,3.91,36.9,6.13,55.32.57,4.76-.75,6.69-6.07,6.12-2.64-.28-5.39.25-8.07.41a60.21,60.21,0,0,0-17.73.1,46.59,46.59,0,0,0-12.92,0,99.4,99.4,0,0,0-21.81.18,60.39,60.39,0,0,0-12.75-.15A.35.35,0,0,0,174.75,326.24Z" fill="#f1892d"/>
  </g>
  <g id="Layer_4" data-name="Layer 4">
    <path d="M206.36,202.08c-2.41.72-4.85,2-6,4.25s-.35,5.54,2,6.32c3.18,1,6-2.63,9.28-3.05,4.19-.52,7.84,4.24,12,3.33,6.08-1.32,3-6.49.19-8.58C219.25,200.92,211.64,200.51,206.36,202.08Z" fill="#ce6da8"/>
  </g>
  <g id="Layer_3" data-name="Layer 3">
    <path d="M193.3,180.88l6.29,4.1-7.42.74" fill="none" stroke="#f2dcce" stroke-miterlimit="10" stroke-width="0.86"/>
    <path d="M233.18,181.74a30.91,30.91,0,0,0-6,3.76,15.66,15.66,0,0,0,7.24,1" fill="none" stroke="#f2dcce" stroke-miterlimit="10" stroke-width="0.86"/>
  </g>
  <g id="Layer_2" data-name="Layer 2">
    <path d="M165.26,174.84a26.93,26.93,0,0,0-8.16-7.5,4.84,4.84,0,0,0-2.42,1.45,2.1,2.1,0,0,0,.77,2.74,6.09,6.09,0,0,0,1.54.8,30.26,30.26,0,0,0,8.8,2.12" fill="#4072b8"/>
    <path d="M242.82,182.43a29.68,29.68,0,0,0,13.35-1.55,6.69,6.69,0,0,0,.35-3.68,2.73,2.73,0,0,0-3.26-1.62,7.07,7.07,0,0,0-1.92.83,33.2,33.2,0,0,0-8.52,6.89" fill="#4072b8"/>
    <path d="M183.14,185a22.63,22.63,0,0,0-8.62-7.84,7.06,7.06,0,0,0-2.66,2.41,2.66,2.66,0,0,0,.76,3.35,5,5,0,0,0,1.65.69,25,25,0,0,0,9.45.77" fill="#4072b8"/>
    <path d="M270.44,175.17a22.69,22.69,0,0,0,11.63-.7,7.06,7.06,0,0,0,.13-3.58,2.65,2.65,0,0,0-2.93-1.8,5,5,0,0,0-1.64.69,25.24,25.24,0,0,0-7.16,6.24" fill="#4072b8"/>
    <path d="M245.9,187.3a22.67,22.67,0,0,0,7.85,8.61,7,7,0,0,0,2.87-2.15,2.66,2.66,0,0,0-.44-3.41,5.11,5.11,0,0,0-1.58-.84,25,25,0,0,0-9.34-1.64" fill="#4072b8"/>
    <path d="M265.68,190.58a22.68,22.68,0,0,0,7.85,8.61,7.06,7.06,0,0,0,2.88-2.15,2.67,2.67,0,0,0-.45-3.41,5,5,0,0,0-1.57-.84,25,25,0,0,0-9.35-1.64" fill="#4072b8"/>
    <path d="M282.75,197.57a22.75,22.75,0,0,0,7.85,8.61,7.06,7.06,0,0,0,2.88-2.15,2.67,2.67,0,0,0-.45-3.41,5,5,0,0,0-1.57-.84,25,25,0,0,0-9.35-1.64" fill="#4072b8"/>
    <path d="M301.06,206.79a22.67,22.67,0,0,0,7.85,8.61,7.07,7.07,0,0,0,2.87-2.16,2.64,2.64,0,0,0-.44-3.4,5.2,5.2,0,0,0-1.57-.85,25.21,25.21,0,0,0-9.35-1.64" fill="#4072b8"/>
    <path d="M180.12,188.58a22.65,22.65,0,0,0-10.75,4.49,7.22,7.22,0,0,0,1.06,3.43,2.66,2.66,0,0,0,3.36.73,4.86,4.86,0,0,0,1.32-1.2,25.2,25.2,0,0,0,4.7-8.24" fill="#4072b8"/>
    <path d="M160.42,193.63a22.78,22.78,0,0,0-11.64.54,7.19,7.19,0,0,0-.18,3.58,2.67,2.67,0,0,0,2.91,1.84,5.12,5.12,0,0,0,1.65-.67,25.08,25.08,0,0,0,7.24-6.14" fill="#4072b8"/>
    <path d="M143.84,200.22a22.66,22.66,0,0,0-11.5,1.9,7,7,0,0,0,.25,3.58,2.66,2.66,0,0,0,3.1,1.48,5.08,5.08,0,0,0,1.56-.86,24.92,24.92,0,0,0,6.46-6.95" fill="#4072b8"/>
    <path d="M123.44,211.88a22.68,22.68,0,0,0-10.75,4.5,7.07,7.07,0,0,0,1.06,3.43,2.66,2.66,0,0,0,3.35.73,5.23,5.23,0,0,0,1.33-1.2,25.12,25.12,0,0,0,4.69-8.25" fill="#4072b8"/>
    <path d="M124.19,170.62a22.67,22.67,0,0,0-11.56-1.46,7,7,0,0,0-.79,3.5,2.67,2.67,0,0,0,2.55,2.31,5.28,5.28,0,0,0,1.74-.38,25.08,25.08,0,0,0,8.18-4.81" fill="#4072b8"/>
    <path d="M144,168.45a22.64,22.64,0,0,0-10.48-5.09,7.14,7.14,0,0,0-1.87,3.06,2.66,2.66,0,0,0,1.67,3,4.84,4.84,0,0,0,1.78.2,24.92,24.92,0,0,0,9.29-1.93" fill="#4072b8"/>
    <path d="M291.58,168.47a22.66,22.66,0,0,0,11,3.85,7.09,7.09,0,0,0,1.51-3.26,2.67,2.67,0,0,0-2-2.79,5.13,5.13,0,0,0-1.79,0,25,25,0,0,0-9,3" fill="#4072b8"/>
    <path d="M311.61,171.77a22.65,22.65,0,0,0,8.75,7.69A7.23,7.23,0,0,0,323,177a2.67,2.67,0,0,0-.82-3.34,5.11,5.11,0,0,0-1.66-.66,25,25,0,0,0-9.47-.6" fill="#4072b8"/>
    <path d="M104.48,175.31a22.62,22.62,0,0,0-10.75,4.5,7,7,0,0,0,1.06,3.42,2.66,2.66,0,0,0,3.36.73,5,5,0,0,0,1.32-1.19,25.25,25.25,0,0,0,4.7-8.25" fill="#4072b8"/>
    <path d="M88.91,186.49A22.76,22.76,0,0,0,78.16,191a7.29,7.29,0,0,0,1.06,3.43,2.67,2.67,0,0,0,3.36.73,5.23,5.23,0,0,0,1.33-1.2,25.12,25.12,0,0,0,4.69-8.25" fill="#4072b8"/>
    <path d="M109.85,223a22.76,22.76,0,0,0-10.75,4.5,7.29,7.29,0,0,0,1.06,3.43,2.67,2.67,0,0,0,3.36.73,5.23,5.23,0,0,0,1.33-1.2,25.12,25.12,0,0,0,4.69-8.25" fill="#4072b8"/>
    <path d="M172.68,171.63a22.67,22.67,0,0,0-3.3-11.17,7,7,0,0,0-3.52.68,2.64,2.64,0,0,0-1.09,3.25,5,5,0,0,0,1,1.45,25.17,25.17,0,0,0,7.69,5.57" fill="#4072b8"/>
    <path d="M157.9,157a22.63,22.63,0,0,0-6.19-9.87,7,7,0,0,0-3.21,1.61,2.65,2.65,0,0,0-.17,3.43,5.09,5.09,0,0,0,1.4,1.11,25.13,25.13,0,0,0,8.9,3.28" fill="#4072b8"/>
    <path d="M137.72,149.76a22.65,22.65,0,0,0-9.53-6.69,7.13,7.13,0,0,0-2.34,2.72A2.67,2.67,0,0,0,127,149a4.85,4.85,0,0,0,1.72.48,25.08,25.08,0,0,0,9.48-.43" fill="#4072b8"/>
    <path d="M116,146.74a22.66,22.66,0,0,0-11.56-1.47,7.18,7.18,0,0,0-.79,3.5,2.66,2.66,0,0,0,2.55,2.31,5,5,0,0,0,1.74-.38,25.2,25.2,0,0,0,8.19-4.8" fill="#4072b8"/>
    <path d="M94,147.74a22.6,22.6,0,0,0-10.74,4.51,7,7,0,0,0,1.06,3.42,2.65,2.65,0,0,0,3.36.73A5,5,0,0,0,89,155.2,25.12,25.12,0,0,0,93.66,147" fill="#4072b8"/>
    <path d="M77.34,160.61a22.54,22.54,0,0,0-9.59,6.61,7,7,0,0,0,1.74,3.13,2.65,2.65,0,0,0,3.43,0,4.9,4.9,0,0,0,1-1.45,25,25,0,0,0,2.9-9" fill="#4072b8"/>
    <path d="M259.11,165.63a29.59,29.59,0,0,0,12.1-5.85,6.68,6.68,0,0,0-.88-3.58,2.72,2.72,0,0,0-3.61-.47,6.9,6.9,0,0,0-1.54,1.42,33.33,33.33,0,0,0-5.79,9.3" fill="#4072b8"/>
    <path d="M276.41,151.92a29.59,29.59,0,0,0,12.1-5.85,6.68,6.68,0,0,0-.88-3.58A2.73,2.73,0,0,0,284,142a6.9,6.9,0,0,0-1.54,1.42,33.24,33.24,0,0,0-5.79,9.31" fill="#4072b8"/>
    <path d="M294.55,142.24a22.63,22.63,0,0,0,11,3.89,6.93,6.93,0,0,0,1.52-3.25,2.64,2.64,0,0,0-2-2.79,5.12,5.12,0,0,0-1.79,0,25.11,25.11,0,0,0-9,3" fill="#4072b8"/>
    <path d="M316.46,144.47a22.62,22.62,0,0,0,9.14,7.22,7.13,7.13,0,0,0,2.49-2.58,2.68,2.68,0,0,0-1-3.3,5.2,5.2,0,0,0-1.69-.57,25.07,25.07,0,0,0-9.49-.11" fill="#4072b8"/>
    <path d="M333,154.07a22.75,22.75,0,0,0,4.84,10.6,7,7,0,0,0,3.39-1.17,2.66,2.66,0,0,0,.63-3.38,5.2,5.2,0,0,0-1.24-1.28,25.09,25.09,0,0,0-8.4-4.43" fill="#4072b8"/>
    <path d="M325.26,183.09a22.71,22.71,0,0,0,8.18,8.29,7.14,7.14,0,0,0,2.79-2.27,2.67,2.67,0,0,0-.58-3.39,5.12,5.12,0,0,0-1.61-.78,25.18,25.18,0,0,0-9.4-1.27" fill="#4072b8"/>
    <path d="M338.61,195.87A22.71,22.71,0,0,0,344.44,206a7.09,7.09,0,0,0,3.26-1.49,2.64,2.64,0,0,0,.3-3.42,5.08,5.08,0,0,0-1.36-1.16,25.05,25.05,0,0,0-8.77-3.61" fill="#4072b8"/>
    <path d="M316.86,218.94a22.67,22.67,0,0,0,7.85,8.61,7,7,0,0,0,2.87-2.15,2.65,2.65,0,0,0-.44-3.41,5.11,5.11,0,0,0-1.58-.84,25,25,0,0,0-9.34-1.65" fill="#4072b8"/>
    <path d="M344.28,170.72a22.63,22.63,0,0,0,4.83,10.6,7.16,7.16,0,0,0,3.4-1.17,2.66,2.66,0,0,0,.62-3.38,5.06,5.06,0,0,0-1.24-1.29,25.11,25.11,0,0,0-8.39-4.42" fill="#4072b8"/>
    <circle cx="259.88" cy="125.16" r="10.49" fill="#ede653"/>
    <ellipse cx="288.06" cy="99.92" rx="15.63" ry="19.04" transform="translate(122.6 356.01) rotate(-76.26)" fill="#ede653"/>
    <path d="M317.34,26.05c-4.37,2.74-7.7,7.46-7.85,12.62S313,49.11,318,50a55.74,55.74,0,0,0-14.67,19.32c-1.35,3-2.47,6.21-2,9.45.71,4.89,5.11,8.71,9.94,9.79s9.92-.18,14.35-2.38c3.7,11.44,11.61,22.31,23.07,25.93s26.14-2.67,28.51-14.46c2.37,3.41,4.78,6.85,7.94,9.55,6.47,5.52,16.39,7.16,23.77,2.93s10.91-14.61,6.66-22c10.7-1.09,17.14-12.08,21.81-21.77.83-1.71-1-7.67-1.42-9.53-.34-1.63,1.16,1.18,0,0-5.17-5.28-10.5-10.67-17.2-13.79s-14.42-3.44-20.69.54C408.41,31.25,391,20,380,20.54c-10.36.56-33.89-.81-37,11.34A19.07,19.07,0,0,0,317.34,26.05Z" fill="#ede653"/>
  </g>
  <g id="Layer_5" data-name="Layer 5">
    <text transform="translate(339.4 45.53)" font-size="15" fill="#1d1d1b" font-family="KohinoorBangla-Light, Kohinoor Bangla"> <tspan x="0" y="18">Mit liv er </tspan><tspan x="0" y="36">ødelagt!</tspan></text>
  </g>
</svg>
