<svg id="Layer_1" data-name="Layer 1" xmlns="http://www.w3.org/2000/svg" width="296" height="245.97" viewBox="0 0 296 245.97">
  <title>hjerte</title>
  <path d="M150,232.45c1.06-2.48,2.07-4.72,3.18-6.92a84.59,84.59,0,0,1,21.72-27.67,75.44,75.44,0,0,1,35.12-16.18,71.84,71.84,0,0,1,7.2-.88,80.84,80.84,0,0,1,8.94-.29c2.93.1,5.83.4,8.74.77a76.42,76.42,0,0,1,34.58,13.21c13.51,9.39,22.15,21.6,26.25,36.37a71.68,71.68,0,0,1,1.46,7.4,57.23,57.23,0,0,1,.63,13.39c-.19,2.7-.5,5.41-1,8.11-2.7,15.84-9.82,30.2-18.54,44-8.59,13.6-18.82,26.2-29.86,38.3a515,515,0,0,1-47.38,45.21c-16.05,13.62-32.74,26.61-50.2,38.8a1.26,1.26,0,0,1-1.75,0c-14.47-10.08-28.36-20.74-41.86-31.82C92.84,382.4,78.93,370,65.82,356.94,52,343.2,39.17,328.84,28.09,313.26c-8.27-11.63-15.43-23.74-20.35-36.83A96.44,96.44,0,0,1,3.54,262a80.8,80.8,0,0,1-1.2-8,57,57,0,0,1-.12-11.16c2.13-22.28,13.22-40,34.57-52.22a76.39,76.39,0,0,1,24.09-8.69,79.4,79.4,0,0,1,10.57-1.25,68.77,68.77,0,0,1,7-.13c2.87.14,5.74.36,8.59.75a75.05,75.05,0,0,1,45.87,24,89.38,89.38,0,0,1,16.56,25.95C149.65,231.55,149.8,231.89,150,232.45Z" transform="translate(-2 -180.48)" fill="#ff2c2c"/>
</svg>
