<svg xmlns="http://www.w3.org/2000/svg" xmlns:xlink="http://www.w3.org/1999/xlink" width="728.25" height="900" viewBox="0 0 728.25 900">
  <defs>
    <style>
      .cls-1 {
        fill: #d5d6d9;
      }

      .cls-2 {
        fill: #ededed;
      }

      .cls-3 {
        fill: #bcbcbc;
      }

      .cls-4 {
        fill: #fcfcfc;
      }

      .cls-5 {
        fill: #f6f6f6;
      }

      .cls-6 {
        fill: #eaeaea;
      }

      .cls-10, .cls-7 {
        font-size: 11.93px;
      }

      .cls-18, .cls-7 {
        fill: #66bcf6;
      }

      .cls-14, .cls-68, .cls-7 {
        font-family: MyriadPro-Regular, Myriad Pro;
      }

      .cls-8 {
        letter-spacing: 0em;
      }

      .cls-9 {
        letter-spacing: 0.02em;
      }

      .cls-10 {
        stroke: #000;
        stroke-width: 0.3px;
      }

      .cls-10, .cls-11, .cls-12, .cls-13, .cls-16, .cls-51, .cls-55, .cls-56, .cls-57, .cls-58, .cls-69 {
        stroke-miterlimit: 10;
      }

      .cls-10, .cls-19, .cls-60, .cls-64 {
        font-family: KohinoorBangla-Regular, Kohinoor Bangla;
      }

      .cls-11, .cls-12, .cls-16, .cls-51, .cls-56, .cls-57, .cls-58, .cls-69 {
        fill: none;
      }

      .cls-11, .cls-13 {
        stroke: #0084ff;
      }

      .cls-12 {
        stroke: #158ffe;
      }

      .cls-13 {
        fill: #0084ff;
      }

      .cls-14 {
        font-size: 8.62px;
      }

      .cls-15 {
        letter-spacing: 0em;
      }

      .cls-16 {
        stroke: #0a88ff;
      }

      .cls-17 {
        fill: #d1d1db;
      }

      .cls-19 {
        font-size: 9.94px;
      }

      .cls-19, .cls-30 {
        fill: #fff;
      }

      .cls-20 {
        letter-spacing: -0.01em;
      }

      .cls-21 {
        letter-spacing: -0.02em;
      }

      .cls-22 {
        fill: #88888c;
      }

      .cls-23 {
        fill: #d7a380;
      }

      .cls-24 {
        fill: #51bdcd;
      }

      .cls-25 {
        fill: #d2ca36;
      }

      .cls-26 {
        fill: #53becd;
      }

      .cls-27 {
        fill: #5c3410;
      }

      .cls-28 {
        fill: #ee85b4;
      }

      .cls-29 {
        fill: #f6b8a8;
      }

      .cls-31 {
        fill: #1e7131;
      }

      .cls-32 {
        fill: #f8f3ee;
      }

      .cls-33 {
        fill: #992848;
      }

      .cls-34 {
        fill: #d45398;
      }

      .cls-35 {
        fill: #f8d889;
      }

      .cls-36 {
        fill: #101010;
      }

      .cls-37 {
        fill: #050606;
      }

      .cls-38 {
        fill: #e4221f;
      }

      .cls-39 {
        fill: #fbd39f;
      }

      .cls-40 {
        fill: #462b13;
      }

      .cls-41 {
        fill: #422812;
      }

      .cls-42 {
        fill: #040505;
      }

      .cls-43 {
        fill: #10672f;
      }

      .cls-44 {
        fill: #432814;
      }

      .cls-45 {
        fill: #3f3b3b;
      }

      .cls-46 {
        fill: #f6d9b4;
      }

      .cls-47 {
        fill: #8d1913;
      }

      .cls-48 {
        fill: #e95330;
      }

      .cls-49 {
        fill: #77b959;
      }

      .cls-50 {
        fill: #8acfe4;
      }

      .cls-51 {
        stroke: #66bcf6;
      }

      .cls-51, .cls-56, .cls-58 {
        stroke-width: 2px;
      }

      .cls-52 {
        fill: #efe422;
      }

      .cls-53 {
        fill: #632574;
      }

      .cls-54 {
        fill: #394c9a;
      }

      .cls-55 {
        fill: #f2c89b;
        stroke: #f4d7a7;
      }

      .cls-56, .cls-57 {
        stroke: #f7e6cb;
      }

      .cls-57 {
        stroke-width: 1.96px;
      }

      .cls-58 {
        stroke: #1c1c1b;
      }

      .cls-59, .cls-63 {
        fill: #838283;
      }

      .cls-59 {
        opacity: 0.73;
      }

      .cls-60 {
        opacity: 0.84;
        font-size: 14.84px;
      }

      .cls-60, .cls-64 {
        fill: #1d1d1b;
      }

      .cls-61 {
        fill: #ae8a71;
      }

      .cls-62 {
        fill: #6d5545;
      }

      .cls-63 {
        opacity: 0.71;
      }

      .cls-64 {
        opacity: 0.82;
        font-size: 14.84px;
      }

      .cls-65 {
        fill: #a1a5b3;
      }

      .cls-66 {
        fill: #c3c4c7;
      }

      .cls-67 {
        fill: #aeaeb1;
      }

      .cls-68 {
        font-size: 10px;
        fill: #adadad;
      }

      .cls-69 {
        stroke-width: 4px;
        stroke: url(#linear-gradient);
      }
    </style>
    <linearGradient id="linear-gradient" x1="370.99" y1="832.04" x2="370.99" y2="777.88" gradientUnits="userSpaceOnUse">
      <stop offset="0" stop-color="#3e3e3c"/>
      <stop offset="0"/>
      <stop offset="0.01" stop-color="#9d9d9c"/>
      <stop offset="0.41" stop-color="#f7f7f7"/>
      <stop offset="0.61" stop-color="#fff"/>
      <stop offset="0.95" stop-color="#959594"/>
      <stop offset="1" stop-color="#242422"/>
    </linearGradient>
  </defs>
  <title>iphonetextsent</title>
  <g id="iphone">
    <path class="cls-1" d="M226.17,853.47H522s32.65,3.06,33.67-43.88,0-654,0-654,4.08-41.83-34.69-47.95-285.67,0-285.67,0-37.75-2-45.91,40.81,0,672.36,0,672.36S198.62,858.57,226.17,853.47Z"/>
    <path class="cls-2" d="M229,846H519s32,3,33-43,0-641,0-641,4-41-34-47-280,0-280,0-37-2-45,40,0,659,0,659S202,851,229,846Z"/>
    <rect class="cls-1" x="553.83" y="236.01" width="4.67" height="46.22"/>
    <rect class="cls-1" x="183.47" y="248.23" width="4.67" height="35.54"/>
    <rect class="cls-1" x="183.47" y="209.54" width="4.67" height="21.22"/>
    <rect class="cls-1" x="183.47" y="288.88" width="4.67" height="35.54"/>
    <rect class="cls-3" x="552.08" y="184.41" width="3.68" height="13.63"/>
    <rect class="cls-3" x="552.08" y="767.34" width="3.68" height="13.63"/>
    <rect class="cls-3" x="189.49" y="767.34" width="3.68" height="13.63"/>
    <rect class="cls-3" x="187.65" y="184.41" width="3.68" height="13.63"/>
  </g>
  <g id="Layer_1" data-name="Layer 1">
    <g id="skærm">
      <rect class="cls-4" x="212.04" y="198.04" width="324" height="568"/>
    </g>
  </g>
  <g id="Layer_8" data-name="Layer 8">
    <polygon class="cls-5" points="212.04 198.03 536.04 198.03 212.04 766.03 212.04 198.03"/>
  </g>
  <g id="Layer_9" data-name="Layer 9">
    <rect class="cls-6" x="212.04" y="198.04" width="326.02" height="58.23"/>
    <text class="cls-7" transform="translate(233.97 236.69)"><tspan class="cls-8">S</tspan><tspan x="5.84" y="0">ta</tspan><tspan class="cls-9" x="15.54" y="0">r</tspan><tspan x="19.73" y="0">tside </tspan></text>
    <text class="cls-10" transform="translate(314.89 234.74)">Anne, Birgittet, +102..&gt;</text>
    <path class="cls-11" d="M469.34,231.51a3.19,3.19,0,0,1,.93-3l-3.17-4.88s-1.59-1.13-3.86,2.16,3.52,9.3,3.52,9.3l9.41,7.59a4.24,4.24,0,0,0,4.31,0c2.15-1.36,2.61-2.49,2.49-3.06s-5.21-3.74-5.21-3.74-2.84,1.25-3.29,1S469.34,231.51,469.34,231.51Z"/>
    <path class="cls-12" d="M488.19,228.28v10.59s-.39,2.6,5.06,2.6h12.24s2,0,2.14-4.27,0-9.62,0-9.62-.29-2.24-6.61-2.24h-9.13S488.19,225.29,488.19,228.28Z"/>
    <polygon class="cls-12" points="508.89 230.78 508.89 236.03 514.82 239.24 514.82 227.57 508.89 230.78"/>
    <circle class="cls-13" cx="235.53" cy="747.02" r="10.01"/>
    <path class="cls-11" d="M268.75,741.8s-4.65-.75-4.52,6.28,2.25,8.17,2.25,8.17h14.33s2.76,1.25,2.76-7.79c0,0,.38-7.33-4.4-6.68l-2.26-2.36h-6.4Z"/>
    <circle class="cls-11" cx="273.9" cy="748.59" r="4.65"/>
    <circle class="cls-11" cx="309.14" cy="743.46" r="1.55"/>
    <polygon class="cls-11" points="306.86 752.02 317.26 752.02 314.81 746.43 311.8 750.58 309.14 748.44 306.86 752.02"/>
    <path class="cls-11" d="M304.76,740.93v13s-.17,2,3.63,2,8.87,0,8.87,0a2.21,2.21,0,0,0,2.44-2.28c.09-2.49,0-12.36,0-12.36a2.39,2.39,0,0,0-2.44-2.23c-2.32,0-10.53,0-10.53,0S304.76,739.31,304.76,740.93Z"/>
    <path class="cls-11" d="M347.21,741.34v8s3.28,6.08,6.87,0v-8S350.41,735.26,347.21,741.34Z"/>
    <line class="cls-11" x1="350.25" y1="754.76" x2="350.25" y2="757.23"/>
    <path class="cls-11" d="M385.52,732.19s-12.31,3.52-12.56,16.57,12.56,13.81,12.56,13.81h90.89s12.3-1.76,12.8-15.19-13.81-15.19-13.81-15.19Z"/>
    <circle class="cls-11" cx="474.68" cy="748.08" r="8.96"/>
    <path class="cls-11" d="M478.59,750s-3.82,5.52-8,0"/>
    <circle class="cls-13" cx="472.61" cy="746.46" r="0.92"/>
    <circle class="cls-13" cx="477.66" cy="746.46" r="0.92"/>
    <text class="cls-14" transform="translate(387.33 749.06)"><tspan class="cls-15">A</tspan><tspan x="5.31" y="0">a</tspan></text>
    <g>
      <rect class="cls-16" x="498.63" y="743.56" width="4.59" height="15.07"/>
      <path class="cls-16" d="M505.51,743.56V756.5h14.25s1.88-.8,1-3.81c0,0,3.57-.7,1.12-3.64,0,0,3.57-2.17.56-4.34,0,0,3.36-2.8-.84-4.2h-7.35l-.28-5.11s-.28-3.28-4.13-2.93l.07,5.31Z"/>
    </g>
    <path class="cls-17" d="M243.05,720.82s4-4,5-8-1-10.93,9.94-10.93h55.66s16.9,7.95,0,18.88H258s-6,1-7-2C251,718.84,247,721.82,243.05,720.82Z"/>
    <g>
      <path class="cls-18" d="M359.76,626.31s-7,0-7,13.91,7,16.9,7,16.9H515.82s2,1,2-3c0,0,6,5,8,3,0,0-4-2-4-15.9s-5-14.91-5-14.91Z"/>
      <text class="cls-19" transform="translate(360.44 638.96)">Del de her billeder , så alle kan<tspan x="0" y="11.93">se h</tspan><tspan class="cls-20" x="18.68" y="11.93">v</tspan><tspan x="23.36" y="11.93">o</tspan><tspan class="cls-21" x="28.91" y="11.93">r</tspan><tspan x="32.34" y="11.93">dan en utro kælling ser ud!</tspan></text>
    </g>
    <circle class="cls-22" cx="265.41" cy="711.88" r="2.98"/>
    <circle class="cls-22" cx="276.35" cy="711.88" r="2.98"/>
    <circle class="cls-22" cx="286.29" cy="711.88" r="2.98"/>
    <g>
      <circle class="cls-22" cx="486.6" cy="669.81" r="8.86"/>
      <path class="cls-23" d="M484.12,672.67a4.44,4.44,0,0,1-1.45-1.76.75.75,0,0,0-.6-.52c-.8-.16-.9-.79-.31-1.66.18.08.49-.08.48.32,0,.15-.13.42.13.47a.52.52,0,0,0,.55-.34c.2-.63.67-1.13.82-1.78h2.42c0,.15.14.19.24.26a6.55,6.55,0,0,0,2.46.88c.56.1,1.24,0,1.47.74a.39.39,0,0,0,.47.23c.23-.06.13-.28.13-.43,0-.39.18-.46.5-.41,0,.21.17.32.25.49a.79.79,0,0,1-.58,1.23.65.65,0,0,0-.58.46,4.62,4.62,0,0,1-1.48,1.83c-.08-.11-.16-.1-.28-.06a7.53,7.53,0,0,1-4.13.07C484.48,672.65,484.3,672.46,484.12,672.67Zm4.19-1.86a2.3,2.3,0,0,1-1.77.91c-.75,0-1.21-.47-1.79-1a2,2,0,0,0,1.84,1.33A1.77,1.77,0,0,0,488.31,670.81Zm-.2-.4c.35,0,.63-.1.64-.41s-.34-.45-.63-.44-.58.1-.58.44S487.88,670.39,488.11,670.41Zm-3,0c.29,0,.57,0,.55-.4s-.31-.44-.58-.45a.52.52,0,0,0-.6.49C484.45,670.37,484.77,670.43,485.07,670.41Zm0-1.68c-.16,0-.28.11-.28.29a.3.3,0,0,0,.6,0C485.36,668.83,485.21,668.75,485,668.73Zm3.07.59c.15,0,.28-.08.29-.26a.27.27,0,0,0-.29-.32.28.28,0,0,0-.3.32C487.82,669.22,487.94,669.3,488.11,669.32Z"/>
      <path class="cls-24" d="M486.16,667.4h-2.42l-2,0a1,1,0,0,1,.05-.79c0,.1.07.29.21.09a2,2,0,0,1,.45-.43,6.12,6.12,0,0,1,3.42-1c.45,0,.64-.16.62-.63,0-.64,0-1.29,0-1.93,0-.31-.07-.48-.41-.47.22-.44.47-.69.86-.16a.52.52,0,0,0,.36.18,4.85,4.85,0,0,1,4.07,5.12Z"/>
      <path class="cls-25" d="M487.92,673.54a3,3,0,0,1,2.6,3c0,1.24,0,1.24-1.17,1.24h-1.07a11.77,11.77,0,0,0-1.68-1.63,9.16,9.16,0,0,0-1.72,1.63l-1.87,0c-.16,0-.32,0-.39-.2a3.76,3.76,0,0,1,1.31-3.62,3.41,3.41,0,0,1,1.19-.51c.22.08.21.29.28.46a1.2,1.2,0,0,0,.86.74C487,674.9,487.54,674.56,487.92,673.54Z"/>
      <path class="cls-26" d="M486.11,662.24c.34,0,.42.16.41.47,0,.64,0,1.29,0,1.93,0,.47-.17.61-.62.63a6.12,6.12,0,0,0-3.42,1,2,2,0,0,0-.45.43c-.14.2-.17,0-.21-.09A4.66,4.66,0,0,1,486.11,662.24Z"/>
      <path class="cls-27" d="M486.16,667.4l5.24,0c.21.08.43.15.63.24s.52,0,.53.3-.25.35-.45.46-.45.19-.68.29-.53,0-.5.41c0,.15.1.37-.13.43a.39.39,0,0,1-.47-.23c-.23-.78-.91-.64-1.47-.74a6.55,6.55,0,0,1-2.46-.88C486.3,667.59,486.17,667.55,486.16,667.4Z"/>
      <path class="cls-27" d="M481.78,667.42l2,0c-.15.65-.62,1.15-.82,1.78a.52.52,0,0,1-.55.34c-.26,0-.14-.32-.13-.47,0-.4-.3-.24-.48-.32Z"/>
      <path class="cls-23" d="M487.92,673.54c-.38,1-.88,1.36-1.66,1.16a1.2,1.2,0,0,1-.86-.74c-.07-.17-.06-.38-.28-.46l.14-.2a6.18,6.18,0,0,0,2.64,0Z"/>
      <path class="cls-23" d="M487.9,673.3a6.18,6.18,0,0,1-2.64,0,6.34,6.34,0,0,1-1.14-.63c.18-.21.36,0,.51,0a7.53,7.53,0,0,0,4.13-.07c.12,0,.2,0,.28.06A6.3,6.3,0,0,1,487.9,673.3Z"/>
      <path class="cls-28" d="M484.88,677.81a9.16,9.16,0,0,1,1.72-1.63c0,.54,0,1.08,0,1.62Z"/>
      <path class="cls-29" d="M486.62,677.8c0-.54,0-1.08,0-1.62a11.77,11.77,0,0,1,1.68,1.63Z"/>
      <ellipse class="cls-23" cx="486.65" cy="670.46" rx="2.82" ry="2.29"/>
      <ellipse class="cls-30" cx="484.35" cy="669.89" rx="1.28" ry="1.32"/>
      <ellipse class="cls-30" cx="488.81" cy="669.86" rx="1.28" ry="1.32"/>
      <ellipse class="cls-31" cx="484.33" cy="670" rx="0.59" ry="0.6"/>
      <ellipse class="cls-31" cx="488.75" cy="669.96" rx="0.59" ry="0.6"/>
      <path id="tænder" class="cls-32" d="M485.61,671.49s.08-.16.16-.16l1.84,0s.1,0,.09.06a.24.24,0,0,1-.26.23h-1.62S485.62,671.67,485.61,671.49Z"/>
      <path id="yder" class="cls-33" d="M487.7,671.44s.19-.09.17,0a.93.93,0,0,1-.51.76,1.35,1.35,0,0,1-1.4,0,.86.86,0,0,1-.53-.81s0-.15.18,0c0,0,0,.16.14.16h1.77A.21.21,0,0,0,487.7,671.44Z"/>
      <path id="tunge" class="cls-34" d="M486,672.27a1,1,0,0,1,.63-.33,1.23,1.23,0,0,1,.74.29,1,1,0,0,1-.42.19A2.32,2.32,0,0,1,486,672.27Z"/>
    </g>
    <g>
      <circle class="cls-22" cx="466.66" cy="669.74" r="8.86"/>
      <path class="cls-35" d="M464.11,672.38l-.58-.46a10.52,10.52,0,0,1-.9-1.56.3.3,0,0,0-.37-.19c-.9-.3-1-.61-.57-1.67a5.73,5.73,0,0,0,5-3.07.83.83,0,0,1,.15.17,5.58,5.58,0,0,0,4.8,2.87c.48,1.07.37,1.4-.54,1.7a.3.3,0,0,0-.37.19,12.13,12.13,0,0,1-.9,1.56l-.59.46c0-.08-.08,0-.1,0h0a20.88,20.88,0,0,1-2.5.35c-.81,0-1.59-.27-2.39-.35h0C464.19,672.33,464.16,672.3,464.11,672.38Zm.75-1.87a1.89,1.89,0,0,0,2,1.24c.94-.15,1.49-.57,1.6-1.3C467.24,671.84,466.06,671.84,464.86,670.51Zm.31-1.17c-.29,0-.65,0-.66.37s.31.45.62.45.59-.11.59-.47S465.42,669.35,465.17,669.34Zm3.06.83c.28,0,.6-.12.58-.47s-.38-.36-.68-.36-.54,0-.53.36S467.88,670.17,468.23,670.17Zm-.05-1.75a.31.31,0,0,0-.29.3.28.28,0,0,0,.28.31.28.28,0,0,0,.32-.32C468.49,668.55,468.36,668.45,468.18,668.42Zm-3,0a.31.31,0,0,0-.31.27.28.28,0,0,0,.3.34.27.27,0,0,0,.29-.29A.31.31,0,0,0,465.14,668.42Z"/>
      <path class="cls-36" d="M466.65,665.43a5.73,5.73,0,0,1-5,3.07,5.49,5.49,0,0,1,1.24-4.16,4.82,4.82,0,0,1,3.72-1.64Z"/>
      <path class="cls-37" d="M466.6,665.43V662.7a4.93,4.93,0,0,1,5,5.13c0,.21,0,.43,0,.64a5.6,5.6,0,0,1-4.81-2.87A.79.79,0,0,0,466.6,665.43Z"/>
      <path class="cls-38" d="M466.66,677.63c-1.18,0-2.35,0-3.53,0-.33,0-.42-.11-.43-.43a4.17,4.17,0,0,1,.59-2.72,2.69,2.69,0,0,1,2.08-1.19c.05.8.61,1.11,1.28,1.3Z"/>
      <path class="cls-38" d="M466.6,677.63v-3c.68-.19,1.25-.48,1.29-1.31a3,3,0,0,1,2.66,2.85c.08,1.49.08,1.5-1.4,1.49Z"/>
      <path class="cls-37" d="M463.41,671.92a2.93,2.93,0,0,0-1.09,2c-1-.38-1.31-2.69-.08-3.5C462.24,671.32,462.48,671.63,463.41,671.92Z"/>
      <path class="cls-37" d="M471.08,670.39a2.29,2.29,0,0,1-.06,3.54,3.06,3.06,0,0,0-1.11-2C470.84,671.63,471.08,671.32,471.08,670.39Z"/>
      <path class="cls-35" d="M467.94,673.3c0,.83-.61,1.12-1.29,1.31-.67-.19-1.23-.5-1.28-1.3v-.23a6,6,0,0,0,2.54,0Z"/>
      <path class="cls-35" d="M467.92,673.08a6,6,0,0,1-2.54,0c-.38-.24-.87-.31-1.17-.69.8.08,1.58.34,2.39.35a20.88,20.88,0,0,0,2.5-.35C468.81,672.78,468.31,672.83,467.92,673.08Z"/>
      <path class="cls-29" d="M463.41,671.92c-.93-.29-1.17-.6-1.17-1.53l0-.22a.3.3,0,0,1,.37.19,10.52,10.52,0,0,0,.9,1.56h-.12Z"/>
      <path class="cls-29" d="M471.08,670.39c0,.93-.24,1.24-1.17,1.53h-.12a12.13,12.13,0,0,0,.9-1.56.3.3,0,0,1,.37-.19Z"/>
      <path class="cls-39" d="M469.1,672.39c0-.06.06-.09.1,0Z"/>
      <path class="cls-39" d="M464.11,672.38c.05-.08.08,0,.11,0Z"/>
      <ellipse class="cls-35" cx="466.71" cy="670.01" rx="2.5" ry="2.15"/>
      <circle class="cls-30" cx="464.69" cy="669.12" r="0.96"/>
      <circle class="cls-30" cx="468.6" cy="669.03" r="0.96"/>
      <ellipse class="cls-40" cx="468.6" cy="669.03" rx="0.54" ry="0.27"/>
      <ellipse class="cls-40" cx="464.66" cy="669.08" rx="0.54" ry="0.27"/>
      <path id="tænder-2" data-name="tænder" class="cls-32" d="M465.54,670.61s.08-.17.17-.17l2,0s.11,0,.1.07a.24.24,0,0,1-.28.24h-1.74S465.54,670.8,465.54,670.61Z"/>
      <path id="yder-2" data-name="yder" class="cls-33" d="M467.78,670.56s.2-.09.18.05a1,1,0,0,1-.55.82,1.42,1.42,0,0,1-1.5,0,.92.92,0,0,1-.58-.87s0-.16.21,0c0,0,0,.17.15.17h1.89A.24.24,0,0,0,467.78,670.56Z"/>
      <path id="tunge-2" data-name="tunge" class="cls-34" d="M465.92,671.45a1.05,1.05,0,0,1,.68-.35,1.33,1.33,0,0,1,.8.32,1.35,1.35,0,0,1-.45.2A2.43,2.43,0,0,1,465.92,671.45Z"/>
    </g>
    <g>
      <circle class="cls-22" cx="447.04" cy="669.89" r="8.86"/>
      <path class="cls-41" d="M452.29,668.73c.32.26.55.55.4,1a.77.77,0,0,1-.82.61c-.3,0-.33.2-.41.38a4.51,4.51,0,0,1-1.57,1.92c0-.08-.08-.07-.12,0h0c-.84,0-1.63.27-2.48.27s-1.56-.27-2.35-.25h0c0-.09-.08-.1-.12,0a4.56,4.56,0,0,1-1.59-1.92c-.08-.17-.1-.4-.4-.38a.76.76,0,0,1-.83-.59c-.15-.43.08-.72.39-1,.25,0,.46,0,.43.3,0,.14-.11.35.11.42a.56.56,0,0,0,.55-.23,1.14,1.14,0,0,0,.27-.84c0-.63,0-1.25,0-1.88,0-.37.12-.47.5-.46,1.07,0,2.14,0,3.21,0s2,0,3,0c.4,0,.52.12.5.48,0,.62,0,1.25,0,1.87a1,1,0,0,0,.38.92.47.47,0,0,0,.4.13c.2-.05.14-.23.13-.36C451.83,668.78,452,668.65,452.29,668.73Zm-3.07,1.92c-1.24,1.41-2.48,1.39-3.82-.07a2,2,0,0,0,2.08,1.37A1.79,1.79,0,0,0,449.22,670.65Zm-3.46-.31c.31,0,.66,0,.65-.39s-.34-.36-.63-.36-.65,0-.64.4S445.47,670.35,445.76,670.34Zm3.16,0c.3,0,.65,0,.65-.38s-.32-.37-.61-.37-.65,0-.65.39S448.62,670.34,448.92,670.33Zm.33-1.33a.29.29,0,0,0-.29-.32.31.31,0,0,0-.35.26.3.3,0,0,0,.32.35A.29.29,0,0,0,449.25,669Zm-3.16,0a.29.29,0,0,0-.29-.32.31.31,0,0,0-.35.26.3.3,0,0,0,.33.35A.28.28,0,0,0,446.09,669Z"/>
      <path class="cls-37" d="M447.47,666.05c-1.07,0-2.14,0-3.2,0-.39,0-.52.09-.51.46,0,.63,0,1.25,0,1.87a1.15,1.15,0,0,1-.27.85.54.54,0,0,1-.55.22c-.22-.06-.13-.28-.11-.42,0-.35-.18-.34-.43-.3-.35-3.85,2.12-5.48,5.46-6.29a3.06,3.06,0,0,1,1.82-.17A22.24,22.24,0,0,0,447.47,666.05Z"/>
      <path class="cls-42" d="M447.47,666.05a22.24,22.24,0,0,1,2.22-3.76,6.43,6.43,0,0,1,2.57,4.77c.06.56,0,1.12,0,1.69-.34-.09-.45,0-.43.37,0,.12.07.3-.13.35a.47.47,0,0,1-.4-.13,1,1,0,0,1-.38-.91c0-.63,0-1.25.05-1.88,0-.36-.1-.49-.5-.48C449.49,666.08,448.48,666.06,447.47,666.05Z"/>
      <path class="cls-43" d="M447.35,677.55l-3.66,0c-.18,0-.39,0-.39-.25a4.31,4.31,0,0,1,.51-2.74,3.25,3.25,0,0,1,2.05-1.3c.07.05.18.09.19.14.11.72.64,1,1.3,1.13Z"/>
      <path class="cls-43" d="M447.29,677.55v-3a1.56,1.56,0,0,0,1.39-1.26c2.41.5,2.8,2.23,2.67,4,0,.32-.27.26-.46.26Z"/>
      <path class="cls-44" d="M448.74,673.13a1.74,1.74,0,0,1-1.45,1.48,1.52,1.52,0,0,1-1.35-1.32c0-.06-.13-.11-.2-.16l.12-.25a6.37,6.37,0,0,0,2.88,0Z"/>
      <path class="cls-44" d="M448.89,673.16a7.11,7.11,0,0,1-3.18,0c-.39-.25-.89-.32-1.18-.75.91,0,1.78.31,2.7.32s1.89-.32,2.85-.32C449.79,672.84,449.28,672.91,448.89,673.16Z"/>
      <ellipse class="cls-41" cx="447.52" cy="670.09" rx="2.7" ry="2.29"/>
      <ellipse class="cls-30" cx="445.2" cy="668.72" rx="1.24" ry="1.23"/>
      <ellipse class="cls-30" cx="449.51" cy="668.7" rx="1.24" ry="1.23"/>
      <ellipse class="cls-45" cx="445.32" cy="668.68" rx="0.57" ry="0.56"/>
      <ellipse class="cls-45" cx="449.5" cy="668.68" rx="0.57" ry="0.56"/>
      <path id="tænder-3" data-name="tænder" class="cls-32" d="M446.45,671.14s.08-.16.16-.16l1.86,0a.18.18,0,1,1-.17.3h-1.64S446.46,671.32,446.45,671.14Z"/>
      <path id="yder-3" data-name="yder" class="cls-33" d="M448.57,671.1s.19-.09.17,0a.94.94,0,0,1-.52.78,1.38,1.38,0,0,1-1.42,0,.87.87,0,0,1-.54-.82s0-.16.19,0c0,0,0,.17.14.17h1.79A.22.22,0,0,0,448.57,671.1Z"/>
      <path id="tunge-3" data-name="tunge" class="cls-34" d="M446.81,671.94a1,1,0,0,1,.64-.34,1.36,1.36,0,0,1,.76.3,1.14,1.14,0,0,1-.43.19A2.4,2.4,0,0,1,446.81,671.94Z"/>
    </g>
    <g>
      <circle class="cls-22" cx="427.03" cy="669.58" r="8.86"/>
      <path class="cls-46" d="M432.06,667.86c.75.77.69,1.23-.24,1.74-.2,0-.42-.1-.53.22a6,6,0,0,1-1.09,1.69,8,8,0,0,1-1.31.93c-.22.07-.52,0-.51.39-.09.63-.57,1-1,1.42s-.43.27-.74,0c-.59-.48-.82-1.25-1.46-1.67-.31-.53-1-.66-1.35-1.1a5.21,5.21,0,0,1-1-1.59c-.11-.34-.31-.35-.59-.31-.88-.49-1-.9-.33-1.7a16,16,0,0,0,4.27-1.08,4.47,4.47,0,0,0,2.58-2.39c.24.12.17.37.23.56A4,4,0,0,0,432.06,667.86ZM425.14,670a2,2,0,0,0,2,1.29,1.85,1.85,0,0,0,1.77-1.35C427.65,671.32,426.4,671.34,425.14,670Zm.3-.37c.25-.06.61-.09.59-.5s-.38-.33-.65-.34-.65,0-.62.39S425.07,669.61,425.44,669.6Zm3.15,0a.61.61,0,0,0,.71-.47c0-.27-.26-.39-.52-.37s-.73-.14-.76.36S428.34,669.53,428.59,669.6Zm.39-1.51a.36.36,0,0,0-.32-.28.3.3,0,0,0-.33.34.28.28,0,0,0,.33.28C428.85,668.43,429,668.31,429,668.09Zm-3.67.35c.33,0,.42-.15.42-.32a.31.31,0,0,0-.31-.31.31.31,0,0,0-.33.36A.31.31,0,0,0,425.31,668.44Z"/>
      <path class="cls-47" d="M428.75,664.43a4.47,4.47,0,0,1-2.58,2.39,16,16,0,0,1-4.27,1.08,6,6,0,0,1,1.21-4.21,5.11,5.11,0,0,1,5.76-1.44A8.87,8.87,0,0,1,428.75,664.43Z"/>
      <path class="cls-48" d="M425.21,672.6c.64.42.87,1.19,1.46,1.67.31.25.48.26.74,0s.88-.79,1-1.42l.6.11c.13.65.26,1.31.38,2V676l0,1.33h-4.63l0-1.35v-.89a.2.2,0,0,0,0-.11,6.08,6.08,0,0,0,.24-1.79.54.54,0,0,1,.21-.42Z"/>
      <path class="cls-47" d="M428.75,664.43a8.87,8.87,0,0,0,.12-2.18,5,5,0,0,1,3.19,5.61A4,4,0,0,1,429,665C428.92,664.8,429,664.55,428.75,664.43Z"/>
      <path class="cls-47" d="M425.17,672.74a.54.54,0,0,0-.21.42,6.08,6.08,0,0,1-.24,1.79c-.21-.11-.28-.33-.42-.5a9.93,9.93,0,0,0-1.06-1.36c-.38-1.15-.72-2.31-1-3.49.28,0,.48,0,.59.31a5.21,5.21,0,0,0,1,1.59,2.15,2.15,0,0,1-.42.84c-.2.28-.18.41.22.4S424.66,672.74,425.17,672.74Z"/>
      <path class="cls-47" d="M429.36,674.91c-.12-.66-.25-1.32-.38-2l0-.2c.46,0,.92,0,1.38,0s.4-.13.24-.41a2.68,2.68,0,0,1-.45-.83,6,6,0,0,0,1.09-1.69c.11-.32.33-.2.53-.22-.28,1.14-.6,2.27-1,3.38C430.23,673.54,429.94,674.33,429.36,674.91Z"/>
      <path class="cls-48" d="M423.79,677.3c-.94.05-.92.05-.94-.87a3.31,3.31,0,0,1,.61-2.32c.18.3.14.67.36,1V676A6.78,6.78,0,0,0,423.79,677.3Z"/>
      <path class="cls-48" d="M430.58,674.15c.73.88.6,1.93.61,3,0,.2-.14.21-.29.2h-.67c0-.45,0-.89,0-1.33V675Z"/>
      <path class="cls-47" d="M423.79,677.3a6.78,6.78,0,0,1,0-1.35h.86l0,1.35Z"/>
      <path class="cls-47" d="M430.21,676c0,.44,0,.88,0,1.33h-.88l0-1.33Z"/>
      <path class="cls-47" d="M430.58,674.15l-.36.88h-.85v-.12c.58-.58.87-1.37,1.47-1.93Z"/>
      <path class="cls-47" d="M423.82,675.07c-.22-.29-.18-.66-.36-1,0-.36-.26-.66-.22-1a9.93,9.93,0,0,1,1.06,1.36c.14.17.21.39.42.5a.2.2,0,0,1,0,.11Z"/>
      <path class="cls-47" d="M425.17,672.74c-.51,0-1,0-1.51,0s-.42-.12-.22-.4a2.15,2.15,0,0,0,.42-.84c.39.44,1,.57,1.35,1.1Z"/>
      <path class="cls-47" d="M430.2,671.51a2.68,2.68,0,0,0,.45.83c.16.28.16.43-.24.41s-.92,0-1.38,0l-.14-.3A8,8,0,0,0,430.2,671.51Z"/>
      <path class="cls-30" d="M428.89,672.44l.14.3,0,.2-.6-.11C428.37,672.47,428.67,672.51,428.89,672.44Z"/>
      <path class="cls-49" d="M429.37,675h.85c0,.31,0,.63,0,.94h-.84Z"/>
      <path class="cls-49" d="M423.82,675.07h.87V676h-.86Z"/>
      <ellipse class="cls-46" cx="426.93" cy="669.73" rx="3.28" ry="2.15"/>
      <ellipse class="cls-30" cx="424.74" cy="668.76" rx="1.32" ry="1.33"/>
      <ellipse class="cls-30" cx="429.31" cy="668.74" rx="1.32" ry="1.33"/>
      <ellipse class="cls-50" cx="424.69" cy="669.04" rx="0.6" ry="0.61"/>
      <ellipse class="cls-50" cx="429.03" cy="669.04" rx="0.6" ry="0.61"/>
      <path id="tænder-4" data-name="tænder" class="cls-32" d="M426.22,670.86s.08-.16.16-.16l1.92,0s.1,0,.1.06a.25.25,0,0,1-.28.23h-1.68S426.23,671,426.22,670.86Z"/>
      <path id="yder-4" data-name="yder" class="cls-33" d="M428.4,670.81s.19-.09.17.05a.94.94,0,0,1-.53.77,1.41,1.41,0,0,1-1.46,0,.86.86,0,0,1-.56-.82s0-.15.2,0c0,0,0,.16.15.16h1.83A.23.23,0,0,0,428.4,670.81Z"/>
      <path id="tunge-4" data-name="tunge" class="cls-34" d="M426.59,671.65a1,1,0,0,1,.66-.33,1.3,1.3,0,0,1,.77.3,1.14,1.14,0,0,1-.43.19A2.5,2.5,0,0,1,426.59,671.65Z"/>
    </g>
    <polyline class="cls-51" points="233.97 221.62 225.13 231.37 233.97 241.9"/>
    <g>
      <circle class="cls-22" cx="506.87" cy="669.56" r="8.86"/>
      <path class="cls-39" d="M502,669.77c-.55-.67-.55-.88,0-1.57a3.89,3.89,0,0,0,3.15-3.49,4.89,4.89,0,0,0,2.71,2.5,16.35,16.35,0,0,0,3.88,1c.56.69.56.91,0,1.61-.52,0-.79.22-1,.7a4.27,4.27,0,0,1-2.19,2.14c-.17.08-.39.1-.35.37-.23.91-.51,1.16-1.4,1.27a1.36,1.36,0,0,1-1.23-1.3c.05-.3-.22-.28-.37-.35a4.12,4.12,0,0,1-2.14-2.11A1.05,1.05,0,0,0,502,669.77Zm3,.39a2.06,2.06,0,0,0,2,1.31,1.79,1.79,0,0,0,1.69-1.2C507.22,671.57,506.47,671.53,505,670.16Zm.35-1.59c.13-.06.39.12.39-.18s-.18-.28-.37-.29-.42.1-.42.31S505.2,668.51,505.34,668.57Zm3.08,0c.1-.1.37.11.4-.15s-.19-.33-.41-.33-.4.1-.4.33S508.26,668.52,508.42,668.58Z"/>
      <path class="cls-52" d="M511.73,668.18a16.35,16.35,0,0,1-3.88-1,4.89,4.89,0,0,1-2.71-2.5l0-2a4.79,4.79,0,0,1,6.55,4.08C511.7,667.24,511.71,667.71,511.73,668.18Z"/>
      <path class="cls-53" d="M505.56,673a1.36,1.36,0,0,0,1.23,1.3,20.3,20.3,0,0,1,.08,3.12c-1.16,0-2.33,0-3.49,0-.38,0-.51-.11-.48-.49a7.48,7.48,0,0,0,0-.82A3.11,3.11,0,0,1,505.56,673Z"/>
      <path class="cls-53" d="M506.82,677.39a21.65,21.65,0,0,0-.09-3.12c.89-.11,1.17-.36,1.4-1.27a3.1,3.1,0,0,1,2.68,3.09c-.08,1.31-.08,1.32-1.38,1.31Z"/>
      <path class="cls-52" d="M505.56,673a3.11,3.11,0,0,0-2.67,3.13c-.88,0-.88,0-.88-.89v-5.44a1.05,1.05,0,0,1,1,.74,4.12,4.12,0,0,0,2.14,2.11C505.34,672.69,505.61,672.67,505.56,673Z"/>
      <path class="cls-52" d="M510.86,676.09a3.09,3.09,0,0,0-2.67-3.09c0-.27.18-.29.35-.37a4.27,4.27,0,0,0,2.19-2.14c.21-.48.48-.74,1-.7v5.45C511.72,676.1,511.73,676.1,510.86,676.09Z"/>
      <path class="cls-52" d="M505.12,662.69l0,2A3.89,3.89,0,0,1,502,668.2a5.78,5.78,0,0,1,1.14-4.1A4,4,0,0,1,505.12,662.69Z"/>
      <ellipse class="cls-39" cx="507.04" cy="670.1" rx="3.12" ry="2.53"/>
      <ellipse class="cls-30" cx="505.08" cy="668.82" rx="1.16" ry="1.2"/>
      <ellipse class="cls-54" cx="505.04" cy="669.48" rx="0.53" ry="0.55"/>
      <ellipse class="cls-30" cx="508.62" cy="668.88" rx="1.16" ry="1.2"/>
      <ellipse class="cls-54" cx="508.62" cy="669.43" rx="0.53" ry="0.55"/>
      <path id="tænder-5" data-name="tænder" class="cls-32" d="M505.41,671s.11-.21.21-.21l2.51,0s.13.06.13.08a.33.33,0,0,1-.36.32h-2.21S505.42,671.22,505.41,671Z"/>
      <path id="yder-5" data-name="yder" class="cls-33" d="M508.26,670.92s.26-.13.23.06a1.31,1.31,0,0,1-.7,1,1.84,1.84,0,0,1-1.91,0,1.18,1.18,0,0,1-.73-1.1s.05-.21.26,0c0,0,0,.23.19.23H508A.31.31,0,0,0,508.26,670.92Z"/>
      <path id="tunge-5" data-name="tunge" class="cls-34" d="M505.9,672a1.29,1.29,0,0,1,.86-.44,1.68,1.68,0,0,1,1,.4,1.61,1.61,0,0,1-.57.25A3,3,0,0,1,505.9,672Z"/>
    </g>
    <path class="cls-17" d="M515.74,357.9H291.33V605.16H491.4c8.65-5.76,16.15-11.53,24.34-17.29Z"/>
    <path class="cls-17" d="M489,605h17V592.61C500.3,596.74,495.07,600.87,489,605Z"/>
    <g>
      <path class="cls-55" d="M455.12,480.59s-.36-55-9.75-79.9A53.85,53.85,0,0,0,436.93,386a43.11,43.11,0,0,0-26.34-15.43l-1.12-12.62H386v12.2s-41.23,9.31-51.42,104.17h9.31s5.67-48.66,26.33-75.78a22.06,22.06,0,0,1,6.16-5.51c-19.72,21.58,3.41,69.76,3.41,69.76-31,42.55,0,140.55,0,140.55h46.51c1.23-6.16,2.83-14.15,4.91-24.42C447.14,500,418,464.1,418,464.1s25.37-46.83,3.2-67.66c0,0,25.48,17.79,24.15,84.15Z"/>
      <path class="cls-55" d="M426.52,605.16c.25-1.15.4-1.87.4-1.87h-.64c-.13.64-.25,1.27-.37,1.87Z"/>
      <path class="cls-56" d="M373,415.44s12.13,25.14,24.26,0"/>
      <path class="cls-56" d="M403.71,415.44s12.13,25.14,24.25,0"/>
      <polyline class="cls-57" points="401.49 603.29 401.49 511.21 409.47 500.86"/>
      <line class="cls-56" x1="392.28" y1="502.1" x2="400.7" y2="510.52"/>
      <path class="cls-58" d="M406,511.48a4.65,4.65,0,0,0,2.6,2.27"/>
      <path class="cls-58" d="M402.38,496.44l3.17-3"/>
      <path class="cls-58" d="M411.24,496.87h3.55"/>
      <path class="cls-58" d="M413.91,503.06l5.22,2.83"/>
      <path class="cls-58" d="M386.86,497.75a22.65,22.65,0,0,1-7.55-.81"/>
      <path class="cls-58" d="M385.88,504.25c-1.93,1.16-3.81,2.42-5.62,3.77"/>
      <path class="cls-58" d="M393.05,498.67a9.23,9.23,0,0,1-3.9-6.24"/>
      <path class="cls-58" d="M392.21,508.42l-4,4.88"/>
      <path class="cls-58" d="M394.41,515.5l-3.2,4.81"/>
      <path class="cls-58" d="M411,509.09a40.28,40.28,0,0,1,5,6"/>
      <path class="cls-58" d="M405,517.25a9.77,9.77,0,0,1,3.9,5.35"/>
      <rect class="cls-59" x="343.9" y="492.91" width="117.91" height="28.14" transform="translate(67.2 -46.78) rotate(7.25)"/>
      <text class="cls-60" transform="translate(363.01 506.66) rotate(7.25)">Censureret</text>
      <circle class="cls-61" cx="385.18" cy="421.82" r="4.63"/>
      <path class="cls-61" d="M421.15,422a4.63,4.63,0,1,1-9.26,0c0-2.55,2.08-5,4.63-5S421.15,419.41,421.15,422Z"/>
      <circle class="cls-62" cx="385.14" cy="422.23" r="1.69"/>
      <circle class="cls-62" cx="416.52" cy="421.96" r="1.69"/>
      <polyline class="cls-63" points="455.45 420.52 340.65 447.43 334.23 420.02 449.03 393.12"/>
      <text class="cls-64" transform="matrix(0.97, -0.23, 0.23, 0.97, 357.4, 433.89)">Censureret</text>
    </g>
    <path class="cls-17" d="M511.54,602.06s3.47,3.82,7.95,3c0,0-3.47-2.57-3.78-10.95l-.31-8.38-9.51,5.09V605l4.53.05S511.51,604.48,511.54,602.06Z"/>
  </g>
  <g id="Layer_7" data-name="Layer 7">
    <circle class="cls-65" cx="251.54" cy="209.54" r="1"/>
    <path class="cls-65" d="M248.54,206.54s-.71,2.12,1.39,1.14,3.18-.1,3.18-.1,1.74.92,1.18-.77S249.06,205.49,248.54,206.54Z"/>
    <path class="cls-65" d="M246.8,204.25s-.62,2.38,1.44,1.4,3.76-2.07,6.16-.27,1.27-1.59,1.27-1.59S250.49,199.63,246.8,204.25Z"/>
    <circle class="cls-65" cx="241.57" cy="206.39" r="1.84"/>
    <circle class="cls-65" cx="229.52" cy="206.39" r="1.84"/>
    <circle class="cls-65" cx="223.57" cy="206.39" r="1.84"/>
    <circle class="cls-65" cx="218.5" cy="206.39" r="1.84"/>
    <circle class="cls-65" cx="235.52" cy="206.39" r="1.84"/>
    <polygon class="cls-66" points="514.68 202.74 514.68 210.54 531.29 210.54 531.29 208.55 532.38 208.55 532.38 204.55 531.29 204.55 531.29 202.74 514.68 202.74"/>
    <rect class="cls-4" x="515.48" y="203.54" width="14" height="5.91"/>
    <rect class="cls-67" x="515.43" y="203.54" width="8.72" height="5.91"/>
    <text class="cls-68" transform="translate(492.22 209.84)">76%</text>
    <text class="cls-68" transform="translate(359.39 208.71)">21:22</text>
  </g>
  <g id="Layer_6" data-name="Layer 6">
    <circle class="cls-65" cx="375.54" cy="134.54" r="3.5"/>
    <circle class="cls-65" cx="326.04" cy="156.04" r="4.5"/>
    <path class="cls-65" d="M351.54,153.54h44s4,4,0,5h-44S347.54,154.54,351.54,153.54Z"/>
  </g>
  <g id="knap">
    <circle class="cls-69" cx="370.99" cy="804.96" r="25.08"/>
  </g>
</svg>
