<svg id="Layer_1" data-name="Layer 1" xmlns="http://www.w3.org/2000/svg" width="186.55" height="270.37" viewBox="0 0 186.55 270.37">
  <title>kissing</title>
  <path d="M113.22,108.08c17.5-5.25,45.54-4.71,59.05,16.23,3.42,5.3,5.83,12.24,6.68,21.32,2.27,24.23,4.81,46.79,6.84,63.72,1.92,16-9.41,30.17-24.08,30.17h-60c-14,0-25.09-13-24.23-28.32q2-35.87,4-71.73a27.33,27.33,0,0,1,10.4-20.3A66.8,66.8,0,0,1,113.22,108.08Z" transform="translate(-77.45 -72)" fill="#2f1c10"/>
  <path d="M164.42,152.91a9.9,9.9,0,0,0,0-1.22l-1.22-22.41c-.36-6.58-7.37-11.74-15.82-11.65l-35.51.37a18.57,18.57,0,0,1-3.42-.26,16.86,16.86,0,0,0-8.6.68c-5.58,2-9,6.41-8.92,11.17l.46,24.63a9.11,9.11,0,0,0-.17,5.24q.06,4.56.13,9.12c2.47,10.83,8.47,18.66,20.34,21.13,3.17.66,6.55.43,9.84.61l12.87-.09c3.43-.25,7-.09,10.28-.83,11.42-2.55,17-10.28,19.51-20.46,0-3.38.08-6.65.12-10C164,157.05,165.06,154.6,164.42,152.91Z" transform="translate(-77.45 -72)" fill="#d8a482"/>
  <path d="M168.44,120.09c-3.31-3-8.09-3.39-12.48-3.54-1.51-.06-3-.08-4.53-.12-.45,6.29,2.34,13.26-.9,19.59l.11.15c2,2.48,4.8,5.25,7.68,4.18,2.25-.84,3.05-3.57,4.05-5.79s3.37-4.47,5.53-3.32C172,129.69,171.76,123.09,168.44,120.09Z" transform="translate(-77.45 -72)" fill="#2f1c10"/>
  <rect x="60.86" y="88.06" width="5.92" height="1.93" rx="0.88" ry="0.88" fill="#e4b0b1"/>
  <rect x="42.64" y="114.67" width="15.4" height="15.12" fill="#d9a582"/>
  <path d="M156.08,218.2c4.37,10.94,8.77,21.87,13,32.83a7.13,7.13,0,0,1,0,3.5c-.16,1.2-1.5,2.23-2.92,2.56-1.58.38-1.31-1.08-2-1.67-1.42-1.26-.46-3.78-3.93-4-.27,0-.62-.53-.52-.77,2.59-6.39-4.25-10.16-5.73-15.43-.71-2.51-2.58-4.73-3.93-7.08-2.57-6.05-2.57-6.05,5.48-9.8C155.78,218.29,155.94,218.25,156.08,218.2Z" transform="translate(-77.45 -72)" fill="#d8a482"/>
  <rect x="30.82" y="217.32" width="13.48" height="45.37" rx="6.07" ry="6.07" fill="#d8a482"/>
  <rect x="63.17" y="217.32" width="13.48" height="45.37" rx="6.07" ry="6.07" fill="#d8a482"/>
  <path d="M139.63,325.48a68.57,68.57,0,0,0,15.29-.07c.66,5,3.84,9,5.22,13.69l-25.65.18C135.73,334.48,139.12,330.58,139.63,325.48Z" transform="translate(-77.45 -72)" fill="#594796"/>
  <path d="M134.49,337.24l25.65-.18c1.42,3.31.8,5.2-3,5.18-6.46,0-12.91,0-19.37.12C133.9,342.45,133.29,340.56,134.49,337.24Z" transform="translate(-77.45 -72)" fill="#a26baa"/>
  <path d="M85.16,184.72s33.7-13.28,37.79-69.45c0,0-42.9-15.32-34.73,34.72S85.16,184.72,85.16,184.72Z" transform="translate(-77.45 -72)" fill="#2f1c10"/>
  <path d="M132.63,116.46c-13.71.27-16,2.94-18.93,17.1l-4.59,22.08c-.66,3.19-1.29,6.65.09,9.63,2.63-3,2.71-7.61,5-10.9s6.51-4.83,9.17-7.9c2.3-2.66,3.23-6.24,4.63-9.5s3.68-6.53,7.12-7.21a30.61,30.61,0,0,0-.84,14.21c4.42-1.06,5.32-7,8.24-10.48,2.68-3.22,7-4.27,11.15-5,.51-4.11,1.26-8.21,1.37-12.31C147.55,116.2,140.09,116.3,132.63,116.46Z" transform="translate(-77.45 -72)" fill="#2f1c10"/>
  <path d="M144.78,172.33s8.41-11.23,14-5.61-2.81,5.61-2.81,5.61,4.21,2.8,4.21,4.21-1.4,4.21-4.21,2.8-12.63-4.21-12.63-4.21Z" transform="translate(-77.45 -72)" fill="#e8183b"/>
  <path d="M93.84,243.44h77.62l-14.9-48.34s-31.61,14.39-51.1,1.08a1.22,1.22,0,0,0-1.87.75Z" transform="translate(-77.45 -72)" fill="#574997" stroke="#574997" stroke-miterlimit="10" stroke-width="0.54"/>
  <path d="M93.33,244l28.6-4,13.27-3.13,13.53-14s.83-3.39,8.46-1.86,12.74,11.75,12.74,11.75,9.19,50,6.12,54.12c0,0,4.09,4.09-11.23,5.11s-44.94,0-44.94,0l-28.59-2Z" transform="translate(-77.45 -72)" fill="#f0882c"/>
  <path d="M133.64,227.91c-5.68,8.88-5.34,13.43-.14,22.27a2.84,2.84,0,0,0,2.7,1.62c.38,0,1.31-.22,1.34,0a29.93,29.93,0,0,0,3.53,11c.38.71-1.62,1.86-2.76,1.79-4.09-.29-5.5-1.08-8.21-5.07-9.51-14-11.27-17.13-8-34.36.71-3.74.8-4.87,1.55-8.18,6.68.3,10.77-.15,10.83,7.38C134.49,225.59,133.85,226.68,133.64,227.91Z" transform="translate(-77.45 -72)" fill="#d8a482"/>
  <polygon points="46.01 138.76 57.24 138.76 57.24 159.18 41.92 159.18 46.01 138.76" fill="#473c96" stroke="#574997" stroke-miterlimit="10" stroke-width="0.54"/>
  <path d="M145.88,199.77c-3.39-2.7-6.61-.59-9.88.31,1.6,12.64-.79,25.2-.89,37.81,6.55-3.53,10.39,1.69,14.89-3.89-2.86-.22-3.31-12.65-2.93-15.68" transform="translate(-77.45 -72)" fill="#f0882c"/>
  <path d="M157.38,213.84c.34,7.37.73,7-7.07,7.06,7.56,2.14,12.89,7.59,18.84,11.58C165.39,226.16,160.65,220.49,157.38,213.84Z" transform="translate(-77.45 -72)" fill="#f0882c"/>
  <path d="M154.26,209.55c0,.43-.28,15.06-.26,15.45,3.46,7,8.91-1.25,12.75,5.54-.71-12-6-24.43-3.75-36.54-3.83-.55-5.73.29-8.89,1.06" transform="translate(-77.45 -72)" fill="#f0882c"/>
  <path d="M107.15,325.79l15.25-.11,5.1,13.69-25.13.16Q104.77,332.66,107.15,325.79Z" transform="translate(-77.45 -72)" fill="#594796"/>
  <path d="M101.81,337.24l25.65-.18c1.42,3.31.8,5.2-3,5.18-6.46,0-12.91,0-19.37.12C101.22,342.45,100.61,340.56,101.81,337.24Z" transform="translate(-77.45 -72)" fill="#a26baa"/>
  <path id="knold" d="M271,82.1" transform="translate(-77.45 -72)" fill="#efe149"/>
  <path d="M199.26,199.79s1.42,4.72-2.29,4.62-4.46,1.41-4.46,1.41,6.31,14.09,12.13,12.45,20.83-8.17,18.36-13a13.21,13.21,0,0,0-5.49-.66s-3.89.31-3-4.35S199.26,199.79,199.26,199.79Z" transform="translate(-77.45 -72)" fill="#eeb58d"/>
  <path d="M186.13,215.43c-2.27,2.51-.18-1.77-3,2.88s-5.26,17.71-4.64,24.47-1.52,12.89-1.73,18.22,0,7.57-.07,12.35c1.52,3.12,3.51,4.32,6.18,1.49-.11-2.44-.14-5.15,1-7.33a13.35,13.35,0,0,0,1.36-6.36c.1-2.5-.61-1.45.15-5.35s1.42-17.89,2.43-21.64,1.68-3,1.55-.43,1.92.19,2.81-1.54a80.91,80.91,0,0,1,2-11c-.58-1.48-1.9-4.95-3.59-5.09S187.52,216.33,186.13,215.43Z" transform="translate(-77.45 -72)" fill="#f7c39e"/>
  <path d="M207.89,324.9H193.33l-.07-33.15s1.09-3.91,7.38-4.5a6.42,6.42,0,0,1,7.22,5.28Z" transform="translate(-77.45 -72)" fill="#f7c39e"/>
  <path d="M224.29,326.35l-.62-34.23s.59-2.81,2.89-2.61,10.22.49,10.22.49,2,.68,2.14,4.09.21,32.72.21,32.72S223.73,327.94,224.29,326.35Z" transform="translate(-77.45 -72)" fill="#f7c39e"/>
  <path d="M191.49,329.44s-.8-4.65,2.13-4.64l14.27.1s2.65.74,1.57,5.77S191.49,329.44,191.49,329.44Z" transform="translate(-77.45 -72)" fill="#7cacdc"/>
  <path d="M222.57,333s-2.1-4.41,1.72-6.68l14.84.46s3.2,1.42.94,5.25S222.57,333,222.57,333Z" transform="translate(-77.45 -72)" fill="#7cacdc"/>
  <path d="M191.49,329.44l18.13.36s5.52,6.39,3.38,10.17-24.19.58-24.19.58S184.88,338.2,191.49,329.44Z" transform="translate(-77.45 -72)" fill="#d35498"/>
  <path d="M222,330.5l18.45.18s7,8.05,2.86,10.57-24.28,0-24.28,0S214.08,340.38,222,330.5Z" transform="translate(-77.45 -72)" fill="#d35498"/>
  <path d="M164.37,159.91s-5.52,31.21,22.07,40h41.93s22.62-5.36,21.52-39.49-37.52-41.94-37.52-41.94S168.23,117.49,164.37,159.91Z" transform="translate(-77.45 -72)" fill="#f7c39e"/>
  <path id="øre_højre" data-name="øre højre" d="M229.85,169.73s14.34,2,11-15.61c0,0-8.83-5.85-11,2.93S229.85,169.73,229.85,169.73Z" transform="translate(-77.45 -72)" fill="#eeb58d"/>
  <path d="M200.43,151.46s9.49.3,10.53-.56c0,0-5.22-3-7.87-1.23Z" transform="translate(-77.45 -72)" fill="#eeb58d"/>
  <path d="M176.18,150.57s9.49.3,10.53-.56c0,0-5.22-3-7.87-1.23Z" transform="translate(-77.45 -72)" fill="#eeb58d"/>
  <path id="næse" d="M186.75,172.12s-4.41-4.87,4.42-4.87,3.31,4.87,3.31,4.87h-7.73Z" transform="translate(-77.45 -72)" fill="#eeb58d"/>
  <circle id="knold-2" data-name="knold" cx="134.68" cy="21.69" r="21.69" fill="#efe149"/>
  <path d="M228.93,138.66a25.31,25.31,0,0,0-1,17.78S230,144.93,235.21,146s14.64,9.41,14.64,9.41-2.1,15.69,0,17.78,7.32-23,7.32-23Z" transform="translate(-77.45 -72)" fill="#efe149"/>
  <path d="M189,186.75s-14.26,6.76-15,3.42,1.43-9.1,6.82-8.58c0,0-8.2-5.15-1.52-6.67S189,186.75,189,186.75Z" transform="translate(-77.45 -72)" fill="#992848"/>
  <path d="M228.93,203.49s8-1.42,13.31-.43c2.56.47,4.47,1.52,4.47,3.57v45l-2.09,10.45L182.92,260l-1-8.36V223.36s-3.13-19.87,3.14-19.87h11.5l7.32,9.41,12.55-9.41Z" transform="translate(-77.45 -72)" fill="#d35498"/>
  <path d="M249,265.54a22.3,22.3,0,0,0-1.27-11.63,12.63,12.63,0,0,1-2.63.07c-3.82,2-7.11.77-10.71.08l-3.81.05s-28.61,0-31.29-.07-2.33-1.89-2.33-1.89V205.71c-5.12-4.16-9,0-9,0l.27,8.8-.44,38.25c-1.25,2.21-5.1.9-5.1.9-2.36,0-.72,9.87-.72,9.87a155.66,155.66,0,0,1-3.26,20.21c-2.48,10.63,4.69,8.56,4.69,8.56h53.66c15.47.59,15-.78,15.75-2.05S249,265.54,249,265.54Z" transform="translate(-77.45 -72)" fill="#7cacdc"/>
  <path id="kjole" d="M214.79,254.23s3.19-.88,3.35-3.14c.14-2,0-35.66,0-43.64a3.54,3.54,0,0,1,1.72-3.1,3.89,3.89,0,0,1,3.66-.4,3.53,3.53,0,0,1,2,3.25v43.66s-.27,2.66,3.35,3.19" transform="translate(-77.45 -72)" fill="#7cacdc"/>
  <path d="M228.45,219.76c3.3-.78,6.63-1.52,9.94-2.29,2.38,2.89,2.4,6.62,2.27,10.31,1.33,6.82,3.52,18.48,3.24,24.42a29.57,29.57,0,0,1-3.26,12.67c-1.76,3.88-3.27,7.69-5,10.37s-4.62,3.82-6.64,1.58c-1.31-1.46.44-6,1.6-7.68,0-1.5-.6-1.58-1.51-2.61s-.63-1.75,1.47-2.74,4-2.71,4.74-7.11-2.26-18.19-3.63-22.2-.93-1.65-3-2.66S228.09,222.05,228.45,219.76Z" transform="translate(-77.45 -72)" fill="#f7c39e"/>
  <path d="M218,337c9-.06,17.24,0,26.21-.08,1.48,3.47,1.51,5.35-2.5,5.33-6.77,0-13.54,0-20.3.12C217.36,342.46,216.72,340.48,218,337Z" transform="translate(-77.45 -72)" fill="#d35498"/>
  <path d="M187.8,337c9-.06,16.53,0,25.49-.08,1.49,3.47,2.23,5.35-1.78,5.33-6.77,0-13.54,0-20.3.12C187.18,342.46,186.54,340.48,187.8,337Z" transform="translate(-77.45 -72)" fill="#d35498"/>
  <path d="M143,153s8-4,13,0" transform="translate(-77.45 -72)" fill="none" stroke="#000" stroke-miterlimit="10"/>
  <path d="M199,159s8-4,13,0" transform="translate(-77.45 -72)" fill="none" stroke="#000" stroke-miterlimit="10"/>
  <path d="M173,158s8-4,13,0" transform="translate(-77.45 -72)" fill="none" stroke="#000" stroke-miterlimit="10"/>
  <path d="M120,154s8-4,13,0" transform="translate(-77.45 -72)" fill="none" stroke="#000" stroke-miterlimit="10"/>
  <path id="hår" d="M156.65,159.72c-3.88.7-5.52-.39-5.64-4.18-.18-6.18-.62-12.34.81-18.43,4.24-18,17.76-28.72,38.41-31.14,11.63-1.36,23.05-.18,35,1.26-1.88-4.24-6.06-4.82-9.51-6.27,5-1.68,6.6-1.46,9.55,2.59,1.75,2.4,2.79,1.79,4.75-.38-.28,2.76-.49,4.59,3.44,4.74,10.9.41,18.44,5.79,23.31,14.14,7.23,12.42,7.73,25.78,7,39.33-2.24.31-3.75-.83-5.47-1.26-2.28-1.69-3.18-.75-4,1.36-1,2.58-1,5.72-4.27,7.31.08-1.62.09-3.25.27-4.86.57-4.91-.92-8.39-6.41-11a41.28,41.28,0,0,1-17.45-15.23c-2.06-3.28-3.05-2.33-5.2-.18-2.34,2.34-4.4,5.43-9,5.46,2-3.05,5.55-4.89,5.31-8.57l.79-.21-.17-.43-.67.58c-15.37,11.14-32.82,18.7-51.87,23.5-.67,0-1,.25-.91.88l-.27,10.52c-2.5-2.12-3-5.09-4.14-7.78C159.52,159.79,159.26,158.11,156.65,159.72Z" transform="translate(-77.45 -72)" fill="#efe149"/>
  <ellipse id="elastik" cx="213.52" cy="105.89" rx="5.91" ry="35.92" transform="translate(15.81 239.66) rotate(-86.08)" fill="#7cacdc"/>
  <polygon points="161.16 140.76 149.92 140.76 149.92 161.18 165.24 161.18 161.16 140.76" fill="#b74990"/>
</svg>
