<svg xmlns="http://www.w3.org/2000/svg" width="478.41" height="357.42" viewBox="0 0 478.41 357.42">
  <title>politiandgirl</title>
  <g id="hat">
    <g>
      <path d="M58.79,294.08s1.89,6.43-3,6.3-5.94,1.92-5.94,1.92,8.4,19.22,16.14,17,27.69-11.15,24.41-17.77c0,0-4.25-1.5-7.3-.89,0,0-5.17.42-4-5.94S58.79,294.08,58.79,294.08Z" transform="translate(-4.23 -134.04)" fill="#d19974"/>
      <path id="øre" d="M28.56,240.31s-6.95-10-8.34-5.71-6.95,17.12,1.39,25.67,15.29,7.14,15.29,7.14Z" transform="translate(-4.23 -134.04)" fill="#d1956d"/>
      <path id="form" d="M47.33,192.52,25.09,208.21s-9,89.15,46.57,89.15,30.59-94.14,30.59-94.14Z" transform="translate(-4.23 -134.04)" fill="#d39e76"/>
      <path id="hår_højre" data-name="hår højre" d="M105,227.47s7-4.28,0-22.82-13.9-4.28-13.9-4.28Z" transform="translate(-4.23 -134.04)"/>
      <path d="M26.48,205.36s-7.64,6.42-.34,39.58c0,0,10.07-1.07,14.24-38.16S26.48,205.36,26.48,205.36Z" transform="translate(-4.23 -134.04)"/>
      <ellipse id="øje_venstre" data-name="øje venstre" cx="52.33" cy="104.05" rx="8.84" ry="8.02" fill="#fff"/>
      <ellipse id="øje_højre" data-name="øje højre" cx="91.26" cy="99.77" rx="8.84" ry="8.02" fill="#fff"/>
      <ellipse cx="89.52" cy="97.45" rx="5.03" ry="4.56" fill="#af0505"/>
      <ellipse cx="54.76" cy="101.73" rx="5.03" ry="4.56" fill="#af0505"/>
      <path id="bryn_højre" data-name="bryn højre" d="M84.87,232.46v2.85s18.08-15.69,20.86-12.83v-7.14S97.38,211.06,84.87,232.46Z" transform="translate(-4.23 -134.04)"/>
      <path id="bryn_venstre" data-name="bryn venstre" d="M41.77,231V223.9s8.34-5.7,27.81,11.41l2.78,4.28S48.72,223.9,41.77,231Z" transform="translate(-4.23 -134.04)"/>
      <path id="næse" d="M73.33,255.28s-6.67-8.56,6.67-8.56,5,8.56,5,8.56H73.33Z" transform="translate(-4.23 -134.04)" fill="#d18b5d"/>
      <path d="M52.89,266.69s4.17,1.43,8.35-7.13c0,0,5.56,10,27.8,17.12,0,0,4.17,2.85-1.39,2.85,0,0-33.37-7.13-33.37-4.28S52.89,266.69,52.89,266.69Z" transform="translate(-4.23 -134.04)" fill="#fff"/>
      <path d="M53.5,271.4s4.08-3.92,10.52-.73,6.25,2.41,6.25,2.41" transform="translate(-4.23 -134.04)" fill="#fff" stroke="#adadad" stroke-linecap="round" stroke-miterlimit="10" stroke-width="0.25"/>
      <path id="venstre_arm" data-name="venstre arm" d="M16.1,321.29A7.14,7.14,0,0,0,14,324.83c-.26,1.88-3.24,34.32-3.24,34.32L7.89,383.7v16.39s3.65,8.93,8.21,2.11c0,0-.42-7.8,1.32-10s1.81-8.62,1.81-8.62a30.87,30.87,0,0,1,0-6.46c.43-2.28,6.7-32.65,6.7-32.65S28,336.8,28,343.76s3.45-3.37,3.45-3.37l-2.56-16s-5.73-5.94-7.08-4.71S16.1,321.29,16.1,321.29Z" transform="translate(-4.23 -134.04)" fill="#d39e76"/>
      <path id="højre_arme" data-name="højre arme" d="M99.38,328.38,102.52,314s5.24-2,12.77,3.11l29.93,9.54,14.2,4.24s11.92,4.85,12.47,5.43,4.72,7.3,1.25,9.65c0,0-2.88,1.29-9.89-2.56,0,0-2.59.51-3.4,2.61s-3.72.52-3.53-1.09-4-4.85-8.68-5.48-30.72-6.74-30.72-6.74-4-.37-3.7,2.55S99.38,328.38,99.38,328.38Z" transform="translate(-4.23 -134.04)" fill="#d39e76"/>
      <path d="M58.58,467.24H39.22L39.13,422s1.45-5.33,9.81-6.13,9.6,7.2,9.6,7.2Z" transform="translate(-4.23 -134.04)" fill="#d39e76"/>
      <path d="M81.78,468.68,81,422s.79-3.83,3.84-3.55,13.59.66,13.59.66,2.65.92,2.85,5.57.28,44.64.28,44.64S81,470.85,81.78,468.68Z" transform="translate(-4.23 -134.04)" fill="#d39e76"/>
      <path d="M36.77,473.44s-1.06-6.35,2.84-6.33l19,.13s3.52,1,2.09,7.87S36.77,473.44,36.77,473.44Z" transform="translate(-4.23 -134.04)" fill="#113a4b"/>
      <path d="M79.49,477.78s-2.79-6,2.29-9.1l19.73.62s4.26,1.95,1.24,7.16S79.49,477.78,79.49,477.78Z" transform="translate(-4.23 -134.04)" fill="#113a4b"/>
      <path d="M36.77,473.44l24.11.49s7.34,8.71,4.49,13.87-32.16.78-32.16.78S28,485.39,36.77,473.44Z" transform="translate(-4.23 -134.04)" fill="#1f1f1f"/>
      <path d="M78.79,475.11l24.52.25s9.31,11,3.81,14.42-32.28,0-32.28,0S68.21,488.6,78.79,475.11Z" transform="translate(-4.23 -134.04)" fill="#1f1f1f"/>
      <path d="M65,320.78" transform="translate(-4.23 -134.04)" fill="none" stroke="#80bc56" stroke-miterlimit="10"/>
      <path d="M69.19,324.32S87,300.78,90,301.26c47.53,7.73,36.34,19.62,36.34,19.62-10.77.49-12.4,4.7-12.4,4.7l-1.45,72.55C61.59,447.59,27,391.61,27,391.61s2.17-59.44.68-64.94-12.55-5.45-12.55-5.45C3,293.51,51.73,301.87,51.73,301.87Z" transform="translate(-4.23 -134.04)" fill="#113a4b"/>
      <polyline points="63.76 197.15 65.45 200.13 85.15 166.79 65.45 176.23 46.92 167.4 63.76 197.15" fill="#e8e8e8"/>
      <g>
        <path d="M23.7,201.08S4.23,198.23,4.23,184c0,0,43.1-11.41,41.71-25.67,0,0,36.15,11.41,51.44-24.25,0,0,16.69,25.67,20.86,22.82s-9.73,30-15.29,28.53v14.26l-77.86,8.56Z" transform="translate(-4.23 -134.04)" fill="#113a4b"/>
        <path d="M32,205.36s26.41,21.39,62.56,10c0,0,36.15-4.28,5.56-17.11S32,205.36,32,205.36Z" transform="translate(-4.23 -134.04)" fill="#113a4b"/>
        <polygon points="19.46 67.04 20.86 74.17 98.71 65.61 98.71 57.06 19.46 67.04"/>
        <ellipse cx="83.42" cy="46.36" rx="5.56" ry="7.85" fill="#d3ac44"/>
      </g>
      <path d="M27,391.61l2.06,72.54H65c1.6,0,.46-52.09.46-52.09h7.38l5.94,52.09h30.13l3.59-66Z" transform="translate(-4.23 -134.04)" fill="#113a4b"/>
      <polygon points="22.78 257.57 108.22 257.57 107.98 268.54 22.78 269.66 22.78 257.57"/>
      <rect x="54.35" y="255.97" width="22.36" height="14.76" fill="#bf9948"/>
    </g>
  </g>
  <g id="Layer_10" data-name="Layer 10">
    <path d="M165.38,276.47" transform="translate(-4.23 -134.04)"/>
    <path id="øre_højre" data-name="øre højre" d="M225.1,317.53s13.72,1.86,10.55-14.92c0,0-8.44-5.6-10.55,2.79S225.1,317.53,225.1,317.53Z" transform="translate(-4.23 -134.04)" fill="#eeb58d"/>
    <path d="M146.48,302.14s-5.27,29.84,21.11,38.24h40.1s21.63-5.13,20.58-37.77-35.88-40.11-35.88-40.11S150.17,261.57,146.48,302.14Z" transform="translate(-4.23 -134.04)" fill="#f7c39e"/>
    <path id="hår" d="M139.1,302c-3.7.67-5.28-.38-5.39-4-.17-5.91-.59-11.8.78-17.62,4-17.25,17-27.47,36.73-29.78,11.11-1.3,22-.17,33.47,1.2-1.79-4-5.8-4.61-9.09-6,4.76-1.6,6.31-1.39,9.13,2.48,1.68,2.3,2.67,1.72,4.54-.36-.27,2.64-.47,4.39,3.29,4.53,10.43.4,17.64,5.54,22.29,13.53,6.92,11.87,7.39,24.65,6.66,37.61-2.15.29-3.59-.8-5.24-1.21-2.18-1.61-3-.72-3.85,1.3-1,2.47-1,5.47-4.09,7,.08-1.55.09-3.11.27-4.65.54-4.69-.89-8-6.14-10.5a39.38,39.38,0,0,1-16.69-14.56c-2-3.14-2.92-2.23-5-.17-2.23,2.24-4.2,5.19-8.63,5.21,1.89-2.91,5.3-4.66,5.08-8.18l.75-.21-.16-.41-.65.55c-14.69,10.66-31.38,17.88-49.59,22.48-.65,0-1,.24-.88.84-.08,3.35-.17,6.71-.26,10.06-2.38-2-2.92-4.86-4-7.44C141.85,302,141.6,300.41,139.1,302Z" transform="translate(-4.23 -134.04)" fill="#efe149"/>
    <path d="M179.85,339.28s1.36,4.51-2.19,4.41-4.27,1.35-4.27,1.35,6,13.48,11.61,11.91,19.91-7.81,17.55-12.45a12.44,12.44,0,0,0-5.25-.63s-3.72.29-2.9-4.17S179.85,339.28,179.85,339.28Z" transform="translate(-4.23 -134.04)" fill="#eeb58d"/>
    <path d="M217.46,358.77l9.61-1.65s2.69,3.16,1.65,9.89l2.46,23.76L232.53,402s.34,9.75.14,10.3-3.12,5.3-5.51,3.48c0,0-1.58-1.7-1.17-7.7,0,0-1-1.7-2.52-1.71s-1.35-2.49-.32-2.79,1.84-4.15.93-7.63-4.39-23.57-4.39-23.57-.87-2.92-2.57-1.94S217.46,358.77,217.46,358.77Z" transform="translate(-4.23 -134.04)" fill="#f7c39e"/>
    <path d="M148,357.33a5,5,0,0,0-1.53,2.48c-.19,1.31-2.33,24.06-2.33,24.06l-2,17.21v11.49s2.63,6.26,5.9,1.48c0,0-.29-5.47,1-7s1.3-6,1.3-6a20.49,20.49,0,0,1,0-4.52c.31-1.61,4.82-22.9,4.82-22.9s1.52-5.35,1.48-.47,2.48-2.37,2.48-2.37l-1.84-11.24s-4.12-4.17-5.1-3.3S148,357.33,148,357.33Z" transform="translate(-4.23 -134.04)" fill="#f7c39e"/>
    <path d="M172.1,460.88a93.45,93.45,0,0,1-12.37-6.49c7.5-8.51,6.71-17.59,6.33-24.81s3.54-5,6.34-5,5.93-2.44,6.86,6.08S179.63,451.28,172.1,460.88Z" transform="translate(-4.23 -134.04)" fill="#f7c39e"/>
    <path d="M190.67,456.73c4.62-8.32,5.15-20.86,4.92-27.18s.6-2.62,2.61-3.45,7.12-.65,9.41.48,1.56-.8,2.69,5-2.3,22.89-6.37,30.32C200.49,461.27,192.71,460.36,190.67,456.73Z" transform="translate(-4.23 -134.04)" fill="#f7c39e"/>
    <path d="M158.27,455.31s1.54-4.25,4-2.85l11.82,6.82s1.85,1.86-1.42,5.54S158.27,455.31,158.27,455.31Z" transform="translate(-4.23 -134.04)" fill="#7cacdc"/>
    <path d="M187.43,460.59s-.63-4.62,3.51-5.58l13.38,4.74s2.51,2.22-.67,5.05S187.43,460.59,187.43,460.59Z" transform="translate(-4.23 -134.04)" fill="#7cacdc"/>
    <path d="M158.27,455.31l14.91,8.86s1.57,7.92-2,10.05-20.39-10.94-20.39-10.94S148.64,459.48,158.27,455.31Z" transform="translate(-4.23 -134.04)" fill="#d35498"/>
    <path d="M187.52,458.66l16.75,5.53s4,9.37-.46,10.46-22.12-7.06-22.12-7.06S177.39,465.35,187.52,458.66Z" transform="translate(-4.23 -134.04)" fill="#d35498"/>
    <ellipse id="øje_højre-2" data-name="øje højre" cx="207.09" cy="185.95" rx="7.91" ry="6.99" fill="#fff"/>
    <ellipse id="øje_venstre-2" data-name="øje venstre" cx="160.65" cy="186.88" rx="7.91" ry="6.99" fill="#fff"/>
    <ellipse cx="209.56" cy="188.31" rx="4.22" ry="3.73" fill="#4161a9"/>
    <ellipse cx="164.08" cy="188.31" rx="4.22" ry="3.73" fill="#4161a9"/>
    <path d="M206.28,312.84s9.08.29,10.07-.54c0,0-5-2.88-7.53-1.17Z" transform="translate(-4.23 -134.04)" fill="#eeb58d"/>
    <path d="M158.24,314s9.08.29,10.07-.54c0,0-5-2.88-7.53-1.17Z" transform="translate(-4.23 -134.04)" fill="#eeb58d"/>
    <path id="næse-2" data-name="næse" d="M184.12,329.24s-4.22-4.66,4.22-4.66,3.17,4.66,3.17,4.66h-7.39Z" transform="translate(-4.23 -134.04)" fill="#eeb58d"/>
    <circle id="knold" cx="186.44" cy="100.99" r="24.51" fill="#efe149"/>
    <ellipse id="elastik" cx="187.09" cy="250.48" rx="5.66" ry="34.35" transform="translate(-79.84 285.95) rotate(-86.08)" fill="#9ad2d7"/>
    <path id="trøjen" d="M156,389.83l.47-27.88s0-3.64-9-3.83c0,0-8.06-13.76,13.59-14.14,0,0,12.37-.43,12.73.58s4.8,9.86,13.59,10.15,13.91-10.57,13.91-10.57l17.38-.25s12.88.91,8.75,14c0,0-8.55.9-8.92,3.3s-.25,28.85-.25,28.85l-1.49,8.56-59.44-1.87Z" transform="translate(-4.23 -134.04)" fill="#d35498"/>
    <path id="kjole" d="M161,344s3.74-4,8.64-.05v44.42s-.33,1.76,2.23,1.8,29.92.07,29.92.07,3.06-.84,3.21-3,0-43.34,0-43.34,3.86-4.5,7.06,0V387s-.38,3.81,6.13,3a21.41,21.41,0,0,1,1.22,11.13s4.36,22.46,3.61,23.67-.27,2.53-15.06,2H156.68s-6.86,2-4.49-8.19a148.2,148.2,0,0,0,3.11-19.32s-1.56-9.48.69-9.44c0,0,3.69,1.25,4.88-.86l.43-36.58Z" transform="translate(-4.23 -134.04)" fill="#7cacdc"/>
    <path d="M143.46,298.39S189,320.9,230.14,295s-54.72-24.29-54.72-24.29Z" transform="translate(-4.23 -134.04)" fill="#efe149"/>
    <path d="M177.11,338s9.36-10.2,21.06,0Z" transform="translate(-4.23 -134.04)" fill="#ba2456"/>
    <path d="M362.29,388.14" transform="translate(-4.23 -134.04)" fill="#efe149"/>
  </g>
  <g id="Layer_11" data-name="Layer 11">
    <path d="M313.55,160.1s-3.17-11.24,11.07-11.24H470.71s8.64-2.35,8.64,11.24V484.29s1.84,7-5.5,7H319.34s-5.79,1.88-5.79-7.54Z" transform="translate(-4.23 -134.04)" fill="#fff"/>
    <polygon points="314.09 90.12 287.9 107.27 314.09 125.51 314.09 90.12" fill="#fff"/>
    <text transform="translate(318.33 32.23)" font-size="12" font-family="KohinoorBangla-Bold, Kohinoor Bangla"><tspan fill="#ff8e31" font-weight="700">Vidste du, at det faktisk er <tspan x="0" y="14.4">st</tspan><tspan x="10.78" y="14.4" letter-spacing="-0.02em">r</tspan><tspan x="15.59" y="14.4">afba</tspan><tspan x="40.51" y="14.4" letter-spacing="0.02em">r</tspan><tspan x="45.74" y="14.4">t og ul</tspan><tspan x="82.63" y="14.4" letter-spacing="-0.02em">o</tspan><tspan x="89.5" y="14.4">vligt: </tspan><tspan x="0" y="57.6">- </tspan><tspan x="7.85" y="57.6" letter-spacing="-0.02em">A</tspan><tspan x="15.58" y="57.6" letter-spacing="0em">t videresende </tspan><tspan x="0" y="72">nøgenbilleder af andre.</tspan><tspan x="0" y="100.8">- </tspan><tspan x="7.85" y="100.8" letter-spacing="-0.02em">A</tspan><tspan x="15.58" y="100.8" letter-spacing="0em">t lægge nøgenbilleder af </tspan><tspan x="0" y="115.2">andre ud på nettet. </tspan><tspan x="0" y="144">Ud</tspan><tspan x="15.54" y="144" letter-spacing="-0.02em">o</tspan><tspan x="22.4" y="144">ver at det er st</tspan><tspan x="107.18" y="144" letter-spacing="-0.02em">r</tspan><tspan x="112" y="144">afba</tspan><tspan x="136.92" y="144" letter-spacing="0.02em">r</tspan><tspan x="142.15" y="144">t, </tspan><tspan x="0" y="158.4">er det heller ik</tspan><tspan x="84.79" y="158.4" letter-spacing="-0.03em">k</tspan><tspan x="91.29" y="158.4">e sj</tspan><tspan x="110.93" y="158.4" letter-spacing="-0.02em">o</tspan><tspan x="117.79" y="158.4">vt </tspan><tspan x="132.56" y="158.4" letter-spacing="-0.02em">f</tspan><tspan x="137.01" y="158.4">or </tspan><tspan x="0" y="172.8">personen det går ud </tspan><tspan x="119.1" y="172.8" letter-spacing="-0.02em">o</tspan><tspan x="125.96" y="172.8" letter-spacing="0em">ver. </tspan><tspan x="0" y="201.6" letter-spacing="-0.03em">F</tspan><tspan x="6.08" y="201.6">or at </tspan><tspan x="36.32" y="201.6" letter-spacing="-0.04em">h</tspan><tspan x="43.18" y="201.6">øre mere,</tspan></tspan><tspan x="0" y="216" fill="#ff8e31" font-weight="700">læs, chat eller ring:</tspan><tspan x="111.12" y="216" font-weight="700"> </tspan><tspan x="114.48" y="216" font-family="KohinoorBangla-Regular, Kohinoor Bangla"> </tspan><tspan font-family="MyriadPro-Regular, Myriad Pro"><tspan x="0" y="244.8"> </tspan></tspan></text>
    <text x="-4.23" y="-134.04"></text>
  </g>
</svg>
