<svg id="Layer_1" data-name="Layer 1" xmlns="http://www.w3.org/2000/svg" width="1050" height="500" viewBox="0 0 1050 500">
  <title>skildpaddesprite</title>
  <path d="M497.45,397.62c-2.33,3.49-.57,33-.1,40.21a1.69,1.69,0,0,1-1.46,1.79,141.69,141.69,0,0,1-45.95-1.71,3.07,3.07,0,0,1-2.46-3.11c.48-10.5,14.5-31.49,17.07-35.27a1.45,1.45,0,0,1,1.12-.62l31.78-1.29" fill="#a7d65f"/>
  <path d="M497.39,433.39c5.65-1.72,12.17-3.91,13.7-5.86a2.06,2.06,0,0,0,.48-2.1c-1.47-3.44-5.66-14.87-2-26.19a1,1,0,0,0-1-1.29h-11.5a1.1,1.1,0,0,0-1.1,1c-.31,4.54-.25,22.81.08,33.46A.94.94,0,0,0,497.39,433.39Z" fill="#82a840"/>
  <path d="M545.78,400.28c-2.6,4.73-11,21.16-11.28,35.29a3.54,3.54,0,0,0,3.18,3.56c5.57.6,18.65,1.48,39-.14a3.08,3.08,0,0,0,2.83-3.23c-.41-7.5-1.49-26.67,2.3-33a1.3,1.3,0,0,0-1-2L548,399A2.41,2.41,0,0,0,545.78,400.28Z" fill="#a7d65f"/>
  <path d="M535.3,428.13l-11-1.16a1.23,1.23,0,0,1-1-1.66c1.81-4.67,7.45-19,10.76-24.7a4.39,4.39,0,0,1,4.09-2.19l8.41.52" fill="#82a840"/>
  <path d="M586.4,401.11a.86.86,0,0,0-.72,1.42c3.65,4.14,13.24,15,22.52,14.32,10.46-.47,17.59-14.77,13.93-18.57-.34-.35.08.36,0,.85-.2,3-2.2,9.08-15.76,7.14l-.38,0c-1.3-.1-9.47-.85-13-3.93a3.27,3.27,0,0,0-1.81-.8Z" fill="#82a840"/>
  <path d="M464.29,399.61s2-86.22,69.64-80.91,64.33,58.36,57.69,83.56C591.62,402.26,506.74,395,464.29,399.61Z" fill="#799651"/>
  <path d="M510.38,392c-4.48,7.62-15,3-23.87,2-1.79-.2-3.54-.36-5.23-.5-11.92-1-16.34-16.41-6.59-23.35l.36-.25a12.78,12.78,0,0,1,8.56-2.12C493.9,368.84,521.24,373.53,510.38,392Z" fill="#98ba66"/>
  <path d="M500.22,325.86a18.55,18.55,0,0,0-7.52,22.23c3,7.63,11.44,14.92,33.32,13.6,0,0,23.72-2.26,34.16-20.32a12.77,12.77,0,0,0-4.68-17.55,27.7,27.7,0,0,0-6.93-2.59S521.23,312.47,500.22,325.86Z" fill="#98ba66"/>
  <path d="M564.1,399.28s-19.18-6.19-7.93-28.14a17.51,17.51,0,0,1,3.25-4.44c4.43-4.35,15.54-13.4,24.29-4.94a16.67,16.67,0,0,1,4.23,7.1A43.21,43.21,0,0,1,589.69,385,17.23,17.23,0,0,1,571,400.72C567.63,400.43,564.8,400,564.1,399.28Z" fill="#98ba66"/>
  <path d="M396.84,392.2s-10.79-8.13.48-26.69c0,0,11.28-25.87,42.45-25.21,0,0,16.57-3.31,29.84,28.52,0,0-6.63,29.18-4,30.51,0,0-45.76,11.27-69-7.3" fill="#a7d65f"/>
  <g>
    <circle cx="413.55" cy="360.94" r="4.97" fill="#020202"/>
    <path d="M412.5,357a3.43,3.43,0,0,0-1.72,5,.31.31,0,0,0,.57,0l1.58-4.55A.31.31,0,0,0,412.5,357Z" fill="#fcfcfc"/>
  </g>
  <g>
    <circle cx="427.14" cy="360.76" r="4.97" fill="#020202"/>
    <path d="M426.09,356.83a3.45,3.45,0,0,0-1.72,5,.32.32,0,0,0,.58,0l1.57-4.56A.31.31,0,0,0,426.09,356.83Z" fill="#fcfcfc"/>
  </g>
  <g id="Layer_2" data-name="Layer 2">
    <path d="M114.4,399.6s2-86.21,69.64-80.91,64.32,58.36,57.69,83.56C241.73,402.25,156.85,395,114.4,399.6Z" fill="#799651"/>
    <path d="M160.49,392c-4.48,7.62-15,3-23.87,2-1.79-.19-3.54-.36-5.23-.5-11.92-1-16.34-16.41-6.59-23.35l.36-.25a12.83,12.83,0,0,1,8.56-2.12C144,368.84,171.35,373.52,160.49,392Z" fill="#98ba66"/>
    <path d="M150.33,325.85a18.55,18.55,0,0,0-7.52,22.23c3,7.63,11.44,14.93,33.32,13.6,0,0,23.72-2.26,34.15-20.32a12.76,12.76,0,0,0-4.67-17.55,27.33,27.33,0,0,0-6.93-2.58S171.34,312.46,150.33,325.85Z" fill="#98ba66"/>
    <path d="M214.21,399.27s-19.19-6.19-7.93-28.14a17.28,17.28,0,0,1,3.25-4.43c4.43-4.36,15.54-13.41,24.29-4.95a16.67,16.67,0,0,1,4.23,7.1A43.21,43.21,0,0,1,239.8,385a17.23,17.23,0,0,1-18.69,15.72C217.74,400.42,214.91,400,214.21,399.27Z" fill="#98ba66"/>
  </g>
  <g id="Layer_3" data-name="Layer 3">
    <path d="M847.35,398.29c-2.33,3.49-.57,33-.1,40.21a1.7,1.7,0,0,1-1.46,1.79,141.67,141.67,0,0,1-45.95-1.71,3.06,3.06,0,0,1-2.46-3.11c.47-10.49,14.49-31.49,17.07-35.27a1.39,1.39,0,0,1,1.12-.61l31.78-1.3" fill="#a7d65f"/>
    <path d="M847.28,434.06c5.66-1.72,12.18-3.91,13.71-5.86a2.08,2.08,0,0,0,.48-2.1c-1.47-3.44-5.66-14.87-2-26.18a1,1,0,0,0-.94-1.3H847a1.09,1.09,0,0,0-1.09,1c-.32,4.54-.25,22.81.07,33.46A.94.94,0,0,0,847.28,434.06Z" fill="#82a840"/>
    <path d="M895.67,401c-2.59,4.73-11,21.16-11.27,35.29a3.54,3.54,0,0,0,3.18,3.56c5.57.6,18.64,1.48,39-.14a3.08,3.08,0,0,0,2.83-3.23c-.41-7.5-1.49-26.66,2.3-33a1.31,1.31,0,0,0-1.05-2l-32.72-1.75A2.42,2.42,0,0,0,895.67,401Z" fill="#a7d65f"/>
    <path d="M885.2,428.8l-11-1.16a1.22,1.22,0,0,1-1-1.66c1.8-4.67,7.44-19,10.75-24.7a4.4,4.4,0,0,1,4.09-2.19l8.41.52" fill="#82a840"/>
    <path d="M936.3,401.78a.86.86,0,0,0-.72,1.42c3.64,4.14,13.24,15,22.52,14.32,10.46-.47,17.59-14.76,13.93-18.57-.34-.35.08.36,0,.85-.19,3-2.19,9.09-15.76,7.14l-.38,0c-1.3-.1-9.46-.85-13-3.92a3.22,3.22,0,0,0-1.82-.81Z" fill="#82a840"/>
    <path d="M814.19,400.28s2-86.21,69.63-80.91,64.33,58.36,57.7,83.56C941.52,402.93,856.63,395.64,814.19,400.28Z" fill="#799651"/>
    <path d="M860.28,392.65c-4.48,7.62-15,3-23.87,2-1.79-.19-3.54-.36-5.23-.5-11.93-1-16.35-16.41-6.6-23.35l.36-.25a12.8,12.8,0,0,1,8.57-2.12C843.8,369.52,871.14,374.2,860.28,392.65Z" fill="#98ba66"/>
    <path d="M850.12,326.53a18.52,18.52,0,0,0-7.52,22.23c3,7.63,11.44,14.93,33.32,13.6,0,0,23.71-2.26,34.15-20.32a12.76,12.76,0,0,0-4.67-17.55,27.48,27.48,0,0,0-6.93-2.58S871.13,313.14,850.12,326.53Z" fill="#98ba66"/>
    <path d="M914,400s-19.19-6.19-7.93-28.14a17.05,17.05,0,0,1,3.25-4.43c4.43-4.36,15.54-13.41,24.28-4.95a16.79,16.79,0,0,1,4.24,7.1,43,43,0,0,1,1.74,16.14,17.22,17.22,0,0,1-18.68,15.72C917.53,401.1,914.7,400.65,914,400Z" fill="#98ba66"/>
    <path d="M747.11,393.28s-11.17-8.26.1-26.82c0,0,11.27-25.87,42.44-25.2,0,0,16.58-3.32,29.85,28.51,0,0-6.63,29.18-4,30.51,0,0-45.76,11.27-69-7.3" fill="#a7d65f"/>
    <g>
      <circle cx="763.44" cy="361.61" r="4.97" fill="#020202"/>
      <path d="M762.4,357.68a3.43,3.43,0,0,0-1.72,5,.31.31,0,0,0,.57,0l1.57-4.55A.31.31,0,0,0,762.4,357.68Z" fill="#fcfcfc"/>
    </g>
    <path d="M772.29,362.63s4.7-4.82,9.85-.12" fill="none" stroke="#050505" stroke-miterlimit="10"/>
  </g>
  <path d="M407.6,377.27s-.91,9.12,20.06,3.64" fill="none" stroke="#000" stroke-miterlimit="10" stroke-width="2"/>
  <path d="M755.15,378.85s-.91,9.12,20.07,3.65" fill="none" stroke="#000" stroke-miterlimit="10" stroke-width="2"/>
</svg>
